<svg width="42" height="42" viewBox="0 0 42 42" fill="none" xmlns="http://www.w3.org/2000/svg">
<mask id="path-1-inside-1_65_23" fill="white">
<path d="M14 19.25L16.625 11.375H32.375L35 19.25M32.375 28C31.6788 28 31.0111 27.7234 30.5188 27.2312C30.0266 26.7389 29.75 26.0712 29.75 25.375C29.75 24.6788 30.0266 24.0111 30.5188 23.5188C31.0111 23.0266 31.6788 22.75 32.375 22.75C33.0712 22.75 33.7389 23.0266 34.2312 23.5188C34.7234 24.0111 35 24.6788 35 25.375C35 26.0712 34.7234 26.7389 34.2312 27.2312C33.7389 27.7234 33.0712 28 32.375 28ZM16.625 28C15.9288 28 15.2611 27.7234 14.7688 27.2312C14.2766 26.7389 14 26.0712 14 25.375C14 24.6788 14.2766 24.0111 14.7688 23.5188C15.2611 23.0266 15.9288 22.75 16.625 22.75C17.3212 22.75 17.9889 23.0266 18.4812 23.5188C18.9734 24.0111 19.25 24.6788 19.25 25.375C19.25 26.0712 18.9734 26.7389 18.4812 27.2312C17.9889 27.7234 17.3212 28 16.625 28ZM34.86 10.5C34.4925 9.45 33.495 8.75 32.375 8.75H16.625C15.505 8.75 14.5075 9.45 14.14 10.5L10.5 21V35C10.5 35.4641 10.6844 35.9092 11.0126 36.2374C11.3408 36.5656 11.7859 36.75 12.25 36.75H14C14.4641 36.75 14.9092 36.5656 15.2374 36.2374C15.5656 35.9092 15.75 35.4641 15.75 35V33.25H33.25V35C33.25 35.4641 33.4344 35.9092 33.7626 36.2374C34.0908 36.5656 34.5359 36.75 35 36.75H36.75C37.2141 36.75 37.6592 36.5656 37.9874 36.2374C38.3156 35.9092 38.5 35.4641 38.5 35V21L34.86 10.5ZM26.11 5.25C25.7425 4.2 24.745 3.5 23.625 3.5H7.875C6.755 3.5 5.7575 4.2 5.39 5.25L1.75 15.75V29.75C1.75 30.2141 1.93437 30.6593 2.26256 30.9874C2.59075 31.3156 3.03587 31.5 3.5 31.5H5.25C5.71413 31.5 6.15925 31.3156 6.48744 30.9874C6.81563 30.6593 7 30.2141 7 29.75V22.5925C6.6767 22.477 6.37938 22.2989 6.1251 22.0682C5.87083 21.8375 5.66461 21.5589 5.51827 21.2484C5.37194 20.9378 5.28837 20.6014 5.27236 20.2585C5.25636 19.9156 5.30823 19.5728 5.425 19.25C5.81 18.2 6.7725 17.5 7.875 17.5H7.9975L9.2225 14H5.25L7.875 6.125H26.4075L26.11 5.25Z"/>
</mask>
<path d="M14 19.25L16.625 11.375H32.375L35 19.25M32.375 28C31.6788 28 31.0111 27.7234 30.5188 27.2312C30.0266 26.7389 29.75 26.0712 29.75 25.375C29.75 24.6788 30.0266 24.0111 30.5188 23.5188C31.0111 23.0266 31.6788 22.75 32.375 22.75C33.0712 22.75 33.7389 23.0266 34.2312 23.5188C34.7234 24.0111 35 24.6788 35 25.375C35 26.0712 34.7234 26.7389 34.2312 27.2312C33.7389 27.7234 33.0712 28 32.375 28ZM16.625 28C15.9288 28 15.2611 27.7234 14.7688 27.2312C14.2766 26.7389 14 26.0712 14 25.375C14 24.6788 14.2766 24.0111 14.7688 23.5188C15.2611 23.0266 15.9288 22.75 16.625 22.75C17.3212 22.75 17.9889 23.0266 18.4812 23.5188C18.9734 24.0111 19.25 24.6788 19.25 25.375C19.25 26.0712 18.9734 26.7389 18.4812 27.2312C17.9889 27.7234 17.3212 28 16.625 28ZM34.86 10.5C34.4925 9.45 33.495 8.75 32.375 8.75H16.625C15.505 8.75 14.5075 9.45 14.14 10.5L10.5 21V35C10.5 35.4641 10.6844 35.9092 11.0126 36.2374C11.3408 36.5656 11.7859 36.75 12.25 36.75H14C14.4641 36.75 14.9092 36.5656 15.2374 36.2374C15.5656 35.9092 15.75 35.4641 15.75 35V33.25H33.25V35C33.25 35.4641 33.4344 35.9092 33.7626 36.2374C34.0908 36.5656 34.5359 36.75 35 36.75H36.75C37.2141 36.75 37.6592 36.5656 37.9874 36.2374C38.3156 35.9092 38.5 35.4641 38.5 35V21L34.86 10.5ZM26.11 5.25C25.7425 4.2 24.745 3.5 23.625 3.5H7.875C6.755 3.5 5.7575 4.2 5.39 5.25L1.75 15.75V29.75C1.75 30.2141 1.93437 30.6593 2.26256 30.9874C2.59075 31.3156 3.03587 31.5 3.5 31.5H5.25C5.71413 31.5 6.15925 31.3156 6.48744 30.9874C6.81563 30.6593 7 30.2141 7 29.75V22.5925C6.6767 22.477 6.37938 22.2989 6.1251 22.0682C5.87083 21.8375 5.66461 21.5589 5.51827 21.2484C5.37194 20.9378 5.28837 20.6014 5.27236 20.2585C5.25636 19.9156 5.30823 19.5728 5.425 19.25C5.81 18.2 6.7725 17.5 7.875 17.5H7.9975L9.2225 14H5.25L7.875 6.125H26.4075L26.11 5.25Z" fill="white"/>
<path d="M16.625 11.375V10.375H15.9042L15.6763 11.0588L16.625 11.375ZM32.375 11.375L33.3237 11.0588L33.0958 10.375H32.375V11.375ZM32.375 28V29V28ZM32.375 22.75V21.75V22.75ZM16.625 28V29V28ZM14 25.375H13H14ZM16.625 22.75V21.75V22.75ZM19.25 25.375H20.25H19.25ZM34.86 10.5L35.8048 10.1725L35.8039 10.1696L34.86 10.5ZM14.14 10.5L13.1961 10.1696L13.1952 10.1725L14.14 10.5ZM10.5 21L9.55516 20.6725L9.5 20.8316V21H10.5ZM15.75 33.25V32.25H14.75V33.25H15.75ZM33.25 33.25H34.25V32.25H33.25V33.25ZM38.5 21H39.5V20.8316L39.4448 20.6725L38.5 21ZM26.11 5.25L27.0568 4.92808L27.0539 4.91965L26.11 5.25ZM5.39 5.25L4.44614 4.91965L4.44516 4.92246L5.39 5.25ZM1.75 15.75L0.805164 15.4225L0.75 15.5816V15.75H1.75ZM1.75 29.75H0.75H1.75ZM7 29.75H8H7ZM7 22.5925H8V21.8878L7.33635 21.6508L7 22.5925ZM5.425 19.25L4.48611 18.9057L4.48463 18.9099L5.425 19.25ZM7.9975 17.5V18.5H8.70698L8.94136 17.8303L7.9975 17.5ZM9.2225 14L10.1664 14.3303L10.632 13H9.2225V14ZM5.25 14L4.30132 13.6838L3.86257 15H5.25V14ZM7.875 6.125V5.125H7.15424L6.92632 5.80877L7.875 6.125ZM26.4075 6.125V7.125H27.8037L27.3543 5.8031L26.4075 6.125ZM14 19.25L14.9487 19.5662L17.5737 11.6912L16.625 11.375L15.6763 11.0588L13.0513 18.9338L14 19.25ZM16.625 11.375V12.375H32.375V11.375V10.375H16.625V11.375ZM32.375 11.375L31.4263 11.6912L34.0513 19.5662L35 19.25L35.9487 18.9338L33.3237 11.0588L32.375 11.375ZM32.375 28V27C31.944 27 31.5307 26.8288 31.226 26.524L30.5188 27.2312L29.8117 27.9383C30.4916 28.6181 31.4136 29 32.375 29V28ZM30.5188 27.2312L31.226 26.524C30.9212 26.2193 30.75 25.806 30.75 25.375H29.75H28.75C28.75 26.3364 29.1319 27.2584 29.8117 27.9383L30.5188 27.2312ZM29.75 25.375H30.75C30.75 24.944 30.9212 24.5307 31.226 24.226L30.5188 23.5188L29.8117 22.8117C29.1319 23.4916 28.75 24.4136 28.75 25.375H29.75ZM30.5188 23.5188L31.226 24.226C31.5307 23.9212 31.944 23.75 32.375 23.75V22.75V21.75C31.4136 21.75 30.4916 22.1319 29.8117 22.8117L30.5188 23.5188ZM32.375 22.75V23.75C32.806 23.75 33.2193 23.9212 33.524 24.226L34.2312 23.5188L34.9383 22.8117C34.2584 22.1319 33.3364 21.75 32.375 21.75V22.75ZM34.2312 23.5188L33.524 24.226C33.8288 24.5307 34 24.944 34 25.375H35H36C36 24.4136 35.6181 23.4916 34.9383 22.8117L34.2312 23.5188ZM35 25.375H34C34 25.806 33.8288 26.2193 33.524 26.524L34.2312 27.2312L34.9383 27.9383C35.6181 27.2584 36 26.3364 36 25.375H35ZM34.2312 27.2312L33.524 26.524C33.2193 26.8288 32.806 27 32.375 27V28V29C33.3364 29 34.2584 28.6181 34.9383 27.9383L34.2312 27.2312ZM16.625 28V27C16.194 27 15.7807 26.8288 15.476 26.524L14.7688 27.2312L14.0617 27.9383C14.7416 28.6181 15.6636 29 16.625 29V28ZM14.7688 27.2312L15.476 26.524C15.1712 26.2193 15 25.806 15 25.375H14H13C13 26.3364 13.3819 27.2584 14.0617 27.9383L14.7688 27.2312ZM14 25.375H15C15 24.944 15.1712 24.5307 15.476 24.226L14.7688 23.5188L14.0617 22.8117C13.3819 23.4916 13 24.4136 13 25.375H14ZM14.7688 23.5188L15.476 24.226C15.7807 23.9212 16.194 23.75 16.625 23.75V22.75V21.75C15.6636 21.75 14.7416 22.1319 14.0617 22.8117L14.7688 23.5188ZM16.625 22.75V23.75C17.056 23.75 17.4693 23.9212 17.774 24.226L18.4812 23.5188L19.1883 22.8117C18.5084 22.1319 17.5864 21.75 16.625 21.75V22.75ZM18.4812 23.5188L17.774 24.226C18.0788 24.5307 18.25 24.944 18.25 25.375H19.25H20.25C20.25 24.4136 19.8681 23.4916 19.1883 22.8117L18.4812 23.5188ZM19.25 25.375H18.25C18.25 25.806 18.0788 26.2193 17.774 26.524L18.4812 27.2312L19.1883 27.9383C19.8681 27.2584 20.25 26.3364 20.25 25.375H19.25ZM18.4812 27.2312L17.774 26.524C17.4693 26.8288 17.056 27 16.625 27V28V29C17.5864 29 18.5084 28.6181 19.1883 27.9383L18.4812 27.2312ZM34.86 10.5L35.8039 10.1696C35.2938 8.71244 33.9134 7.75 32.375 7.75V8.75V9.75C33.0766 9.75 33.6912 10.1876 33.9161 10.8304L34.86 10.5ZM32.375 8.75V7.75H16.625V8.75V9.75H32.375V8.75ZM16.625 8.75V7.75C15.0866 7.75 13.7062 8.71244 13.1961 10.1696L14.14 10.5L15.0839 10.8304C15.3088 10.1876 15.9234 9.75 16.625 9.75V8.75ZM14.14 10.5L13.1952 10.1725L9.55516 20.6725L10.5 21L11.4448 21.3275L15.0848 10.8275L14.14 10.5ZM10.5 21H9.5V35H10.5H11.5V21H10.5ZM10.5 35H9.5C9.5 35.7293 9.78973 36.4288 10.3055 36.9445L11.0126 36.2374L11.7197 35.5303C11.579 35.3897 11.5 35.1989 11.5 35H10.5ZM11.0126 36.2374L10.3055 36.9445C10.8212 37.4603 11.5207 37.75 12.25 37.75V36.75V35.75C12.0511 35.75 11.8603 35.671 11.7197 35.5303L11.0126 36.2374ZM12.25 36.75V37.75H14V36.75V35.75H12.25V36.75ZM14 36.75V37.75C14.7293 37.75 15.4288 37.4603 15.9445 36.9445L15.2374 36.2374L14.5303 35.5303C14.3897 35.671 14.1989 35.75 14 35.75V36.75ZM15.2374 36.2374L15.9445 36.9445C16.4603 36.4288 16.75 35.7293 16.75 35H15.75H14.75C14.75 35.1989 14.671 35.3897 14.5303 35.5303L15.2374 36.2374ZM15.75 35H16.75V33.25H15.75H14.75V35H15.75ZM15.75 33.25V34.25H33.25V33.25V32.25H15.75V33.25ZM33.25 33.25H32.25V35H33.25H34.25V33.25H33.25ZM33.25 35H32.25C32.25 35.7293 32.5397 36.4288 33.0555 36.9445L33.7626 36.2374L34.4697 35.5303C34.329 35.3897 34.25 35.1989 34.25 35H33.25ZM33.7626 36.2374L33.0555 36.9445C33.5712 37.4603 34.2707 37.75 35 37.75V36.75V35.75C34.8011 35.75 34.6103 35.671 34.4697 35.5303L33.7626 36.2374ZM35 36.75V37.75H36.75V36.75V35.75H35V36.75ZM36.75 36.75V37.75C37.4793 37.75 38.1788 37.4603 38.6945 36.9445L37.9874 36.2374L37.2803 35.5303C37.1397 35.671 36.9489 35.75 36.75 35.75V36.75ZM37.9874 36.2374L38.6945 36.9445C39.2103 36.4288 39.5 35.7293 39.5 35H38.5H37.5C37.5 35.1989 37.421 35.3897 37.2803 35.5303L37.9874 36.2374ZM38.5 35H39.5V21H38.5H37.5V35H38.5ZM38.5 21L39.4448 20.6725L35.8048 10.1725L34.86 10.5L33.9152 10.8275L37.5552 21.3275L38.5 21ZM26.11 5.25L27.0539 4.91965C26.5438 3.46244 25.1634 2.5 23.625 2.5V3.5V4.5C24.3266 4.5 24.9412 4.93756 25.1661 5.58035L26.11 5.25ZM23.625 3.5V2.5H7.875V3.5V4.5H23.625V3.5ZM7.875 3.5V2.5C6.33658 2.5 4.95616 3.46244 4.44614 4.91965L5.39 5.25L6.33386 5.58035C6.55884 4.93756 7.17342 4.5 7.875 4.5V3.5ZM5.39 5.25L4.44516 4.92246L0.805164 15.4225L1.75 15.75L2.69484 16.0775L6.33484 5.57754L5.39 5.25ZM1.75 15.75H0.75V29.75H1.75H2.75V15.75H1.75ZM1.75 29.75H0.75C0.75 30.4793 1.03973 31.1788 1.55546 31.6945L2.26256 30.9874L2.96967 30.2803C2.82902 30.1397 2.75 29.9489 2.75 29.75H1.75ZM2.26256 30.9874L1.55546 31.6945C2.07118 32.2103 2.77066 32.5 3.5 32.5V31.5V30.5C3.30109 30.5 3.11032 30.421 2.96967 30.2803L2.26256 30.9874ZM3.5 31.5V32.5H5.25V31.5V30.5H3.5V31.5ZM5.25 31.5V32.5C5.97934 32.5 6.67882 32.2103 7.19454 31.6945L6.48744 30.9874L5.78033 30.2803C5.63968 30.421 5.44891 30.5 5.25 30.5V31.5ZM6.48744 30.9874L7.19454 31.6945C7.71027 31.1788 8 30.4793 8 29.75H7H6C6 29.9489 5.92098 30.1397 5.78033 30.2803L6.48744 30.9874ZM7 29.75H8V22.5925H7H6V29.75H7ZM7 22.5925L7.33635 21.6508C7.13703 21.5796 6.95374 21.4697 6.79698 21.3275L6.1251 22.0682L5.45322 22.8089C5.80501 23.128 6.21636 23.3745 6.66365 23.5342L7 22.5925ZM6.1251 22.0682L6.79698 21.3275C6.64022 21.1853 6.51309 21.0136 6.42288 20.8221L5.51827 21.2484L4.61367 21.6746C4.81612 22.1043 5.10143 22.4897 5.45322 22.8089L6.1251 22.0682ZM5.51827 21.2484L6.42288 20.8221C6.33266 20.6307 6.28114 20.4233 6.27127 20.2119L5.27236 20.2585L4.27345 20.3051C4.29559 20.7796 4.41121 21.245 4.61367 21.6746L5.51827 21.2484ZM5.27236 20.2585L6.27127 20.2119C6.26141 20.0005 6.29339 19.7892 6.36537 19.5901L5.425 19.25L4.48463 18.9099C4.32307 19.3565 4.2513 19.8307 4.27345 20.3051L5.27236 20.2585ZM5.425 19.25L6.36388 19.5943C6.61179 18.9181 7.21296 18.5 7.875 18.5V17.5V16.5C6.33204 16.5 5.0082 17.4819 4.48612 18.9057L5.425 19.25ZM7.875 17.5V18.5H7.9975V17.5V16.5H7.875V17.5ZM7.9975 17.5L8.94136 17.8303L10.1664 14.3303L9.2225 14L8.27864 13.6697L7.05364 17.1697L7.9975 17.5ZM9.2225 14V13H5.25V14V15H9.2225V14ZM5.25 14L6.19868 14.3162L8.82368 6.44123L7.875 6.125L6.92632 5.80877L4.30132 13.6838L5.25 14ZM7.875 6.125V7.125H26.4075V6.125V5.125H7.875V6.125ZM26.4075 6.125L27.3543 5.8031L27.0568 4.9281L26.11 5.25L25.1632 5.5719L25.4607 6.4469L26.4075 6.125Z" fill="white" mask="url(#path-1-inside-1_65_23)"/>
</svg>
