<svg width="46" height="46" viewBox="0 0 46 46" fill="none" xmlns="http://www.w3.org/2000/svg">
<path d="M40.25 23V31.625H5.75V8.625H15.8125V5.75H5.75C4.9875 5.75 4.25623 6.0529 3.71707 6.59207C3.1779 7.13123 2.875 7.8625 2.875 8.625V31.625C2.875 32.3875 3.1779 33.1188 3.71707 33.6579C4.25623 34.1971 4.9875 34.5 5.75 34.5H17.25V40.25H11.5V43.125H34.5V40.25H28.75V34.5H40.25C41.0125 34.5 41.7438 34.1971 42.2829 33.6579C42.8221 33.1188 43.125 32.3875 43.125 31.625V23H40.25ZM25.875 40.25H20.125V34.5H25.875V40.25Z" fill="white"/>
<path d="M25.875 25.8749H25.8606C25.5509 25.8717 25.2505 25.7685 25.0041 25.5807C24.7578 25.3929 24.5787 25.1305 24.4936 24.8327L21.9161 15.8124H15.8125V12.9374H23C23.3124 12.9372 23.6164 13.0389 23.866 13.2269C24.1155 13.415 24.297 13.6792 24.3829 13.9796L25.9267 19.3846L30.2522 5.32585C30.3447 5.03364 30.5274 4.77822 30.774 4.59617C31.0206 4.41413 31.3185 4.3148 31.625 4.31242C31.9279 4.30786 32.2242 4.40105 32.4699 4.57817C32.7156 4.75528 32.8977 5.00689 32.9892 5.29567L35.535 12.9374H43.125V15.8124H34.5C34.1982 15.8125 33.904 15.7176 33.6591 15.5411C33.4143 15.3646 33.2312 15.1155 33.1358 14.8292L31.6796 10.4592L27.2492 24.86C27.1588 25.1539 26.9766 25.4111 26.7292 25.5938C26.4819 25.7764 26.1825 25.875 25.875 25.8749Z" fill="white"/>
</svg>
