<svg width="42" height="42" viewBox="0 0 42 42" fill="none" xmlns="http://www.w3.org/2000/svg">
<path d="M19.25 19.25L10.5 10.5" stroke="white" stroke-width="2"/>
<path d="M8.75008 13.1251L13.1251 8.75012L7.87508 6.12512L6.12508 7.87512L8.75008 13.1251ZM34.9563 15.7064C35.7965 14.8669 36.3745 13.8013 36.62 12.6393C36.8654 11.4772 36.7678 10.2689 36.3388 9.16137L33.8503 11.6499H30.3503V8.14987L32.8388 5.66137C31.7312 5.23146 30.5225 5.13297 29.3599 5.3779C28.1973 5.62282 27.1311 6.20058 26.2911 7.04079C25.451 7.881 24.8735 8.94738 24.6288 10.11C24.3842 11.2727 24.4829 12.4814 24.9131 13.5889L13.5906 24.9131C12.4831 24.483 11.2744 24.3842 10.1117 24.6289C8.94909 24.8735 7.88271 25.4511 7.0425 26.2911C6.20229 27.1311 5.62453 28.1974 5.37961 29.36C5.13468 30.5225 5.23317 31.7313 5.66308 32.8389L8.14983 30.3504H11.6498V33.8504L9.16133 36.3389C10.2686 36.7688 11.4771 36.8674 12.6395 36.6228C13.8018 36.3781 14.868 35.8008 15.7081 34.9611C16.5482 34.1213 17.1261 33.0554 17.3712 31.8931C17.6163 30.7309 17.5182 29.5224 17.0888 28.4149L28.4148 17.0889C29.5219 17.5171 30.7295 17.6144 31.8909 17.3689C33.0522 17.1235 34.1172 16.5459 34.9563 15.7064Z" stroke="white" stroke-width="2" stroke-linejoin="round"/>
<path d="M20.6448 25.375L30.4518 35.182C30.6712 35.4019 30.9319 35.5763 31.2188 35.6953C31.5057 35.8143 31.8133 35.8756 32.1239 35.8756C32.4345 35.8756 32.7421 35.8143 33.029 35.6953C33.3159 35.5763 33.5766 35.4019 33.796 35.182L35.182 33.796C35.4019 33.5766 35.5763 33.3159 35.6953 33.029C35.8143 32.7421 35.8756 32.4345 35.8756 32.1239C35.8756 31.8133 35.8143 31.5057 35.6953 31.2188C35.5763 30.9319 35.4019 30.6712 35.182 30.4518L25.375 20.6448" stroke="white" stroke-width="2" stroke-linejoin="round"/>
</svg>
