<svg width="46" height="37" viewBox="0 0 46 37" fill="none" xmlns="http://www.w3.org/2000/svg">
<g clip-path="url(#clip0_296_242)">
<path d="M3.45 0C1.54531 0 0 1.55371 0 3.46875V26.5938C0 28.5088 1.54531 30.0625 3.45 30.0625H4.6C4.6 33.8926 7.69062 37 11.5 37C15.3094 37 18.4 33.8926 18.4 30.0625H27.6C27.6 33.8926 30.6906 37 34.5 37C38.3094 37 41.4 33.8926 41.4 30.0625H43.7C44.9722 30.0625 46 29.0291 46 27.75C46 26.4709 44.9722 25.4375 43.7 25.4375V17.1486C43.7 15.9201 43.2184 14.7422 42.3559 13.875L36.8 8.28887C35.9375 7.42168 34.7659 6.9375 33.5441 6.9375H29.9V3.46875C29.9 1.55371 28.3547 0 26.45 0H3.45ZM29.9 11.5625H33.5441L39.1 17.1486V18.5H29.9V11.5625ZM8.05 30.0625C8.05 29.1425 8.41348 28.2602 9.06048 27.6097C9.70748 26.9592 10.585 26.5938 11.5 26.5938C12.415 26.5938 13.2925 26.9592 13.9395 27.6097C14.5865 28.2602 14.95 29.1425 14.95 30.0625C14.95 30.9825 14.5865 31.8648 13.9395 32.5153C13.2925 33.1658 12.415 33.5312 11.5 33.5312C10.585 33.5312 9.70748 33.1658 9.06048 32.5153C8.41348 31.8648 8.05 30.9825 8.05 30.0625ZM34.5 26.5938C35.415 26.5938 36.2925 26.9592 36.9395 27.6097C37.5865 28.2602 37.95 29.1425 37.95 30.0625C37.95 30.9825 37.5865 31.8648 36.9395 32.5153C36.2925 33.1658 35.415 33.5312 34.5 33.5312C33.585 33.5312 32.7075 33.1658 32.0605 32.5153C31.4135 31.8648 31.05 30.9825 31.05 30.0625C31.05 29.1425 31.4135 28.2602 32.0605 27.6097C32.7075 26.9592 33.585 26.5938 34.5 26.5938Z" fill="white"/>
</g>
<defs>
<clipPath id="clip0_296_242">
<rect width="46" height="37" fill="white"/>
</clipPath>
</defs>
</svg>
