<svg width="46" height="46" viewBox="0 0 46 46" fill="none" xmlns="http://www.w3.org/2000/svg">
<mask id="path-1-inside-1_296_244" fill="white">
<path d="M15.3334 21.0833L18.2084 12.4583H35.4584L38.3334 21.0833M35.4584 30.6666C34.6959 30.6666 33.9646 30.3637 33.4255 29.8245C32.8863 29.2854 32.5834 28.5541 32.5834 27.7916C32.5834 27.0291 32.8863 26.2978 33.4255 25.7587C33.9646 25.2195 34.6959 24.9166 35.4584 24.9166C36.2209 24.9166 36.9522 25.2195 37.4913 25.7587C38.0305 26.2978 38.3334 27.0291 38.3334 27.7916C38.3334 28.5541 38.0305 29.2854 37.4913 29.8245C36.9522 30.3637 36.2209 30.6666 35.4584 30.6666ZM18.2084 30.6666C17.4459 30.6666 16.7146 30.3637 16.1755 29.8245C15.6363 29.2854 15.3334 28.5541 15.3334 27.7916C15.3334 27.0291 15.6363 26.2978 16.1755 25.7587C16.7146 25.2195 17.4459 24.9166 18.2084 24.9166C18.9709 24.9166 19.7022 25.2195 20.2413 25.7587C20.7805 26.2978 21.0834 27.0291 21.0834 27.7916C21.0834 28.5541 20.7805 29.2854 20.2413 29.8245C19.7022 30.3637 18.9709 30.6666 18.2084 30.6666ZM38.1801 11.4999C37.7776 10.3499 36.6851 9.58325 35.4584 9.58325H18.2084C16.9817 9.58325 15.8892 10.3499 15.4867 11.4999L11.5001 22.9999V38.3333C11.5001 38.8416 11.702 39.3291 12.0615 39.6885C12.4209 40.048 12.9084 40.2499 13.4167 40.2499H15.3334C15.8417 40.2499 16.3293 40.048 16.6887 39.6885C17.0481 39.3291 17.2501 38.8416 17.2501 38.3333V36.4166H36.4167V38.3333C36.4167 38.8416 36.6187 39.3291 36.9781 39.6885C37.3376 40.048 37.8251 40.2499 38.3334 40.2499H40.2501C40.7584 40.2499 41.2459 40.048 41.6054 39.6885C41.9648 39.3291 42.1667 38.8416 42.1667 38.3333V22.9999L38.1801 11.4999ZM28.5967 5.74992C28.1942 4.59992 27.1017 3.83325 25.8751 3.83325H8.62508C7.39841 3.83325 6.30591 4.59992 5.90341 5.74992L1.91675 17.2499V32.5833C1.91675 33.0916 2.11868 33.5791 2.47813 33.9385C2.83757 34.298 3.32508 34.4999 3.83341 34.4999H5.75008C6.25841 34.4999 6.74592 34.298 7.10537 33.9385C7.46481 33.5791 7.66675 33.0916 7.66675 32.5833V24.7441C7.31265 24.6176 6.98702 24.4225 6.70853 24.1698C6.43004 23.9172 6.20417 23.6121 6.0439 23.2719C5.88363 22.9318 5.7921 22.5634 5.77457 22.1878C5.75704 21.8122 5.81385 21.4368 5.94175 21.0833C6.36341 19.9333 7.41758 19.1666 8.62508 19.1666H8.75925L10.1009 15.3333H5.75008L8.62508 6.70825H28.9226L28.5967 5.74992Z"/>
</mask>
<path d="M15.3334 21.0833L18.2084 12.4583H35.4584L38.3334 21.0833M35.4584 30.6666C34.6959 30.6666 33.9646 30.3637 33.4255 29.8245C32.8863 29.2854 32.5834 28.5541 32.5834 27.7916C32.5834 27.0291 32.8863 26.2978 33.4255 25.7587C33.9646 25.2195 34.6959 24.9166 35.4584 24.9166C36.2209 24.9166 36.9522 25.2195 37.4913 25.7587C38.0305 26.2978 38.3334 27.0291 38.3334 27.7916C38.3334 28.5541 38.0305 29.2854 37.4913 29.8245C36.9522 30.3637 36.2209 30.6666 35.4584 30.6666ZM18.2084 30.6666C17.4459 30.6666 16.7146 30.3637 16.1755 29.8245C15.6363 29.2854 15.3334 28.5541 15.3334 27.7916C15.3334 27.0291 15.6363 26.2978 16.1755 25.7587C16.7146 25.2195 17.4459 24.9166 18.2084 24.9166C18.9709 24.9166 19.7022 25.2195 20.2413 25.7587C20.7805 26.2978 21.0834 27.0291 21.0834 27.7916C21.0834 28.5541 20.7805 29.2854 20.2413 29.8245C19.7022 30.3637 18.9709 30.6666 18.2084 30.6666ZM38.1801 11.4999C37.7776 10.3499 36.6851 9.58325 35.4584 9.58325H18.2084C16.9817 9.58325 15.8892 10.3499 15.4867 11.4999L11.5001 22.9999V38.3333C11.5001 38.8416 11.702 39.3291 12.0615 39.6885C12.4209 40.048 12.9084 40.2499 13.4167 40.2499H15.3334C15.8417 40.2499 16.3293 40.048 16.6887 39.6885C17.0481 39.3291 17.2501 38.8416 17.2501 38.3333V36.4166H36.4167V38.3333C36.4167 38.8416 36.6187 39.3291 36.9781 39.6885C37.3376 40.048 37.8251 40.2499 38.3334 40.2499H40.2501C40.7584 40.2499 41.2459 40.048 41.6054 39.6885C41.9648 39.3291 42.1667 38.8416 42.1667 38.3333V22.9999L38.1801 11.4999ZM28.5967 5.74992C28.1942 4.59992 27.1017 3.83325 25.8751 3.83325H8.62508C7.39841 3.83325 6.30591 4.59992 5.90341 5.74992L1.91675 17.2499V32.5833C1.91675 33.0916 2.11868 33.5791 2.47813 33.9385C2.83757 34.298 3.32508 34.4999 3.83341 34.4999H5.75008C6.25841 34.4999 6.74592 34.298 7.10537 33.9385C7.46481 33.5791 7.66675 33.0916 7.66675 32.5833V24.7441C7.31265 24.6176 6.98702 24.4225 6.70853 24.1698C6.43004 23.9172 6.20417 23.6121 6.0439 23.2719C5.88363 22.9318 5.7921 22.5634 5.77457 22.1878C5.75704 21.8122 5.81385 21.4368 5.94175 21.0833C6.36341 19.9333 7.41758 19.1666 8.62508 19.1666H8.75925L10.1009 15.3333H5.75008L8.62508 6.70825H28.9226L28.5967 5.74992Z" fill="white"/>
<path d="M18.2084 12.4583V11.4583H17.4877L17.2597 12.142L18.2084 12.4583ZM35.4584 12.4583L36.4071 12.142L36.1792 11.4583H35.4584V12.4583ZM35.4584 30.6666V31.6666V30.6666ZM33.4255 29.8245L32.7184 30.5316L33.4255 29.8245ZM33.4255 25.7587L32.7184 25.0515L33.4255 25.7587ZM35.4584 24.9166V23.9166V24.9166ZM18.2084 30.6666V31.6666V30.6666ZM15.3334 27.7916H14.3334H15.3334ZM18.2084 24.9166V23.9166V24.9166ZM21.0834 27.7916H22.0834H21.0834ZM38.1801 11.4999L39.1249 11.1724L39.1239 11.1696L38.1801 11.4999ZM15.4867 11.4999L14.5429 11.1696L14.5419 11.1724L15.4867 11.4999ZM11.5001 22.9999L10.5552 22.6724L10.5001 22.8315V22.9999H11.5001ZM17.2501 36.4166V35.4166H16.2501V36.4166H17.2501ZM36.4167 36.4166H37.4167V35.4166H36.4167V36.4166ZM42.1667 22.9999H43.1667V22.8315L43.1116 22.6724L42.1667 22.9999ZM28.5967 5.74992L29.5436 5.428L29.5406 5.41957L28.5967 5.74992ZM5.90341 5.74992L4.95955 5.41957L4.95858 5.42238L5.90341 5.74992ZM1.91675 17.2499L0.971912 16.9224L0.916748 17.0815V17.2499H1.91675ZM1.91675 32.5833H0.916748H1.91675ZM7.66675 32.5833H8.66675H7.66675ZM7.66675 24.7441H8.66675V24.0394L8.0031 23.8023L7.66675 24.7441ZM5.94175 21.0833L5.00286 20.739L5.00137 20.7431L5.94175 21.0833ZM8.75925 19.1666V20.1666H9.46873L9.70311 19.4969L8.75925 19.1666ZM10.1009 15.3333L11.0448 15.6636L11.5104 14.3333H10.1009V15.3333ZM5.75008 15.3333L4.8014 15.017L4.36266 16.3333H5.75008V15.3333ZM8.62508 6.70825V5.70825H7.90432L7.6764 6.39202L8.62508 6.70825ZM28.9226 6.70825V7.70825H30.3188L29.8694 6.38635L28.9226 6.70825ZM15.3334 21.0833L16.2821 21.3995L19.1571 12.7745L18.2084 12.4583L17.2597 12.142L14.3847 20.767L15.3334 21.0833ZM18.2084 12.4583V13.4583H35.4584V12.4583V11.4583H18.2084V12.4583ZM35.4584 12.4583L34.5097 12.7745L37.3847 21.3995L38.3334 21.0833L39.2821 20.767L36.4071 12.142L35.4584 12.4583ZM35.4584 30.6666V29.6666C34.9611 29.6666 34.4842 29.469 34.1326 29.1174L33.4255 29.8245L32.7184 30.5316C33.4451 31.2583 34.4307 31.6666 35.4584 31.6666V30.6666ZM33.4255 29.8245L34.1326 29.1174C33.781 28.7658 33.5834 28.2889 33.5834 27.7916H32.5834H31.5834C31.5834 28.8193 31.9917 29.8049 32.7184 30.5316L33.4255 29.8245ZM32.5834 27.7916H33.5834C33.5834 27.2943 33.781 26.8174 34.1326 26.4658L33.4255 25.7587L32.7184 25.0515C31.9917 25.7782 31.5834 26.7639 31.5834 27.7916H32.5834ZM33.4255 25.7587L34.1326 26.4658C34.4842 26.1141 34.9611 25.9166 35.4584 25.9166V24.9166V23.9166C34.4307 23.9166 33.4451 24.3248 32.7184 25.0515L33.4255 25.7587ZM35.4584 24.9166V25.9166C35.9557 25.9166 36.4326 26.1141 36.7842 26.4658L37.4913 25.7587L38.1985 25.0515C37.4717 24.3248 36.4861 23.9166 35.4584 23.9166V24.9166ZM37.4913 25.7587L36.7842 26.4658C37.1359 26.8174 37.3334 27.2943 37.3334 27.7916H38.3334H39.3334C39.3334 26.7639 38.9252 25.7782 38.1985 25.0515L37.4913 25.7587ZM38.3334 27.7916H37.3334C37.3334 28.2889 37.1359 28.7658 36.7842 29.1174L37.4913 29.8245L38.1985 30.5316C38.9252 29.8049 39.3334 28.8193 39.3334 27.7916H38.3334ZM37.4913 29.8245L36.7842 29.1174C36.4326 29.469 35.9557 29.6666 35.4584 29.6666V30.6666V31.6666C36.4861 31.6666 37.4717 31.2583 38.1985 30.5316L37.4913 29.8245ZM18.2084 30.6666V29.6666C17.7111 29.6666 17.2342 29.469 16.8826 29.1174L16.1755 29.8245L15.4684 30.5316C16.1951 31.2583 17.1807 31.6666 18.2084 31.6666V30.6666ZM16.1755 29.8245L16.8826 29.1174C16.531 28.7658 16.3334 28.2889 16.3334 27.7916H15.3334H14.3334C14.3334 28.8193 14.7417 29.8049 15.4684 30.5316L16.1755 29.8245ZM15.3334 27.7916H16.3334C16.3334 27.2943 16.531 26.8174 16.8826 26.4658L16.1755 25.7587L15.4684 25.0515C14.7417 25.7783 14.3334 26.7639 14.3334 27.7916H15.3334ZM16.1755 25.7587L16.8826 26.4658C17.2342 26.1141 17.7111 25.9166 18.2084 25.9166V24.9166V23.9166C17.1807 23.9166 16.1951 24.3248 15.4684 25.0515L16.1755 25.7587ZM18.2084 24.9166V25.9166C18.7057 25.9166 19.1826 26.1141 19.5342 26.4658L20.2413 25.7587L20.9485 25.0515C20.2218 24.3248 19.2361 23.9166 18.2084 23.9166V24.9166ZM20.2413 25.7587L19.5342 26.4658C19.8859 26.8174 20.0834 27.2943 20.0834 27.7916H21.0834H22.0834C22.0834 26.7639 21.6752 25.7783 20.9485 25.0515L20.2413 25.7587ZM21.0834 27.7916H20.0834C20.0834 28.2889 19.8859 28.7658 19.5342 29.1174L20.2413 29.8245L20.9485 30.5316C21.6752 29.8049 22.0834 28.8193 22.0834 27.7916H21.0834ZM20.2413 29.8245L19.5342 29.1174C19.1826 29.469 18.7057 29.6666 18.2084 29.6666V30.6666V31.6666C19.2361 31.6666 20.2218 31.2583 20.9485 30.5316L20.2413 29.8245ZM38.1801 11.4999L39.1239 11.1696C38.5789 9.61236 37.1035 8.58325 35.4584 8.58325V9.58325V10.5833C36.2667 10.5833 36.9762 11.0875 37.2362 11.8303L38.1801 11.4999ZM35.4584 9.58325V8.58325H18.2084V9.58325V10.5833H35.4584V9.58325ZM18.2084 9.58325V8.58325C16.5633 8.58325 15.0879 9.61236 14.5429 11.1696L15.4867 11.4999L16.4306 11.8303C16.6906 11.0875 17.4002 10.5833 18.2084 10.5833V9.58325ZM15.4867 11.4999L14.5419 11.1724L10.5552 22.6724L11.5001 22.9999L12.4449 23.3275L16.4316 11.8275L15.4867 11.4999ZM11.5001 22.9999H10.5001V38.3333H11.5001H12.5001V22.9999H11.5001ZM11.5001 38.3333H10.5001C10.5001 39.1068 10.8074 39.8487 11.3544 40.3956L12.0615 39.6885L12.7686 38.9814C12.5967 38.8095 12.5001 38.5764 12.5001 38.3333H11.5001ZM12.0615 39.6885L11.3544 40.3956C11.9013 40.9426 12.6432 41.2499 13.4167 41.2499V40.2499V39.2499C13.1736 39.2499 12.9405 39.1533 12.7686 38.9814L12.0615 39.6885ZM13.4167 40.2499V41.2499H15.3334V40.2499V39.2499H13.4167V40.2499ZM15.3334 40.2499V41.2499C16.107 41.2499 16.8488 40.9426 17.3958 40.3956L16.6887 39.6885L15.9816 38.9814C15.8097 39.1533 15.5765 39.2499 15.3334 39.2499V40.2499ZM16.6887 39.6885L17.3958 40.3956C17.9428 39.8487 18.2501 39.1068 18.2501 38.3333H17.2501H16.2501C16.2501 38.5764 16.1535 38.8095 15.9816 38.9814L16.6887 39.6885ZM17.2501 38.3333H18.2501V36.4166H17.2501H16.2501V38.3333H17.2501ZM17.2501 36.4166V37.4166H36.4167V36.4166V35.4166H17.2501V36.4166ZM36.4167 36.4166H35.4167V38.3333H36.4167H37.4167V36.4166H36.4167ZM36.4167 38.3333H35.4167C35.4167 39.1068 35.724 39.8487 36.271 40.3956L36.9781 39.6885L37.6852 38.9814C37.5133 38.8095 37.4167 38.5764 37.4167 38.3333H36.4167ZM36.9781 39.6885L36.271 40.3956C36.818 40.9426 37.5599 41.2499 38.3334 41.2499V40.2499V39.2499C38.0903 39.2499 37.8571 39.1533 37.6852 38.9814L36.9781 39.6885ZM38.3334 40.2499V41.2499H40.2501V40.2499V39.2499H38.3334V40.2499ZM40.2501 40.2499V41.2499C41.0236 41.2499 41.7655 40.9426 42.3125 40.3956L41.6054 39.6885L40.8983 38.9814C40.7264 39.1533 40.4932 39.2499 40.2501 39.2499V40.2499ZM41.6054 39.6885L42.3125 40.3956C42.8595 39.8487 43.1667 39.1068 43.1667 38.3333H42.1667H41.1667C41.1667 38.5764 41.0702 38.8095 40.8983 38.9814L41.6054 39.6885ZM42.1667 38.3333H43.1667V22.9999H42.1667H41.1667V38.3333H42.1667ZM42.1667 22.9999L43.1116 22.6724L39.1249 11.1724L38.1801 11.4999L37.2352 11.8275L41.2219 23.3275L42.1667 22.9999ZM28.5967 5.74992L29.5406 5.41957C28.9956 3.86236 27.5202 2.83325 25.8751 2.83325V3.83325V4.83325C26.6833 4.83325 27.3929 5.33748 27.6529 6.08027L28.5967 5.74992ZM25.8751 3.83325V2.83325H8.62508V3.83325V4.83325H25.8751V3.83325ZM8.62508 3.83325V2.83325C6.97999 2.83325 5.50458 3.86236 4.95956 5.41957L5.90341 5.74992L6.84727 6.08027C7.10725 5.33748 7.81684 4.83325 8.62508 4.83325V3.83325ZM5.90341 5.74992L4.95858 5.42238L0.971912 16.9224L1.91675 17.2499L2.86158 17.5775L6.84825 6.07746L5.90341 5.74992ZM1.91675 17.2499H0.916748V32.5833H1.91675H2.91675V17.2499H1.91675ZM1.91675 32.5833H0.916748C0.916748 33.3568 1.22404 34.0987 1.77102 34.6456L2.47813 33.9385L3.18523 33.2314C3.01333 33.0595 2.91675 32.8264 2.91675 32.5833H1.91675ZM2.47813 33.9385L1.77102 34.6456C2.318 35.1926 3.05987 35.4999 3.83341 35.4999V34.4999V33.4999C3.5903 33.4999 3.35714 33.4033 3.18523 33.2314L2.47813 33.9385ZM3.83341 34.4999V35.4999H5.75008V34.4999V33.4999H3.83341V34.4999ZM5.75008 34.4999V35.4999C6.52363 35.4999 7.26549 35.1926 7.81248 34.6456L7.10537 33.9385L6.39826 33.2314C6.22636 33.4033 5.9932 33.4999 5.75008 33.4999V34.4999ZM7.10537 33.9385L7.81248 34.6456C8.35946 34.0987 8.66675 33.3568 8.66675 32.5833H7.66675H6.66675C6.66675 32.8264 6.57017 33.0595 6.39826 33.2314L7.10537 33.9385ZM7.66675 32.5833H8.66675V24.7441H7.66675H6.66675V32.5833H7.66675ZM7.66675 24.7441L8.0031 23.8023C7.77299 23.7202 7.56138 23.5933 7.3804 23.4292L6.70853 24.1698L6.03665 24.9105C6.41265 25.2516 6.85232 25.5151 7.3304 25.6858L7.66675 24.7441ZM6.70853 24.1698L7.3804 23.4292C7.19943 23.265 7.05266 23.0667 6.94851 22.8457L6.0439 23.2719L5.1393 23.6982C5.35569 24.1574 5.66064 24.5694 6.03665 24.9105L6.70853 24.1698ZM6.0439 23.2719L6.94851 22.8457C6.84436 22.6247 6.78488 22.3852 6.77349 22.1412L5.77457 22.1878L4.77566 22.2344C4.79933 22.7415 4.92291 23.239 5.1393 23.6982L6.0439 23.2719ZM5.77457 22.1878L6.77349 22.1412C6.76209 21.8971 6.79901 21.6532 6.88212 21.4234L5.94175 21.0833L5.00137 20.7431C4.8287 21.2205 4.75199 21.7273 4.77566 22.2344L5.77457 22.1878ZM5.94175 21.0833L6.88062 21.4275C7.16521 20.6514 7.85805 20.1666 8.62508 20.1666V19.1666V18.1666C6.97712 18.1666 5.56162 19.2151 5.00287 20.739L5.94175 21.0833ZM8.62508 19.1666V20.1666H8.75925V19.1666V18.1666H8.62508V19.1666ZM8.75925 19.1666L9.70311 19.4969L11.0448 15.6636L10.1009 15.3333L9.15706 15.0029L7.81539 18.8362L8.75925 19.1666ZM10.1009 15.3333V14.3333H5.75008V15.3333V16.3333H10.1009V15.3333ZM5.75008 15.3333L6.69876 15.6495L9.57376 7.02448L8.62508 6.70825L7.6764 6.39202L4.8014 15.017L5.75008 15.3333ZM8.62508 6.70825V7.70825H28.9226V6.70825V5.70825H8.62508V6.70825ZM28.9226 6.70825L29.8694 6.38635L29.5435 5.42802L28.5967 5.74992L27.65 6.07182L27.9758 7.03015L28.9226 6.70825Z" fill="white" mask="url(#path-1-inside-1_296_244)"/>
</svg>
