<svg width="46" height="46" viewBox="0 0 46 46" fill="none" xmlns="http://www.w3.org/2000/svg">
<mask id="path-1-inside-1_104_74" fill="white">
<path d="M15.3327 21.0833L18.2077 12.4583H35.4577L38.3327 21.0833M35.4577 30.6666C34.6952 30.6666 33.9639 30.3637 33.4248 29.8246C32.8856 29.2854 32.5827 28.5541 32.5827 27.7916C32.5827 27.0292 32.8856 26.2979 33.4248 25.7587C33.9639 25.2195 34.6952 24.9166 35.4577 24.9166C36.2202 24.9166 36.9514 25.2195 37.4906 25.7587C38.0298 26.2979 38.3327 27.0292 38.3327 27.7916C38.3327 28.5541 38.0298 29.2854 37.4906 29.8246C36.9514 30.3637 36.2202 30.6666 35.4577 30.6666ZM18.2077 30.6666C17.4452 30.6666 16.7139 30.3637 16.1747 29.8246C15.6356 29.2854 15.3327 28.5541 15.3327 27.7916C15.3327 27.0292 15.6356 26.2979 16.1747 25.7587C16.7139 25.2195 17.4452 24.9166 18.2077 24.9166C18.9702 24.9166 19.7014 25.2195 20.2406 25.7587C20.7798 26.2979 21.0827 27.0292 21.0827 27.7916C21.0827 28.5541 20.7798 29.2854 20.2406 29.8246C19.7014 30.3637 18.9702 30.6666 18.2077 30.6666ZM38.1793 11.5C37.7768 10.35 36.6843 9.58331 35.4577 9.58331H18.2077C16.981 9.58331 15.8885 10.35 15.486 11.5L11.4993 23V38.3333C11.4993 38.8416 11.7013 39.3292 12.0607 39.6886C12.4202 40.048 12.9077 40.25 13.416 40.25H15.3327C15.841 40.25 16.3285 40.048 16.688 39.6886C17.0474 39.3292 17.2493 38.8416 17.2493 38.3333V36.4166H36.416V38.3333C36.416 38.8416 36.6179 39.3292 36.9774 39.6886C37.3368 40.048 37.8243 40.25 38.3327 40.25H40.2493C40.7577 40.25 41.2452 40.048 41.6046 39.6886C41.9641 39.3292 42.166 38.8416 42.166 38.3333V23L38.1793 11.5ZM28.596 5.74998C28.1935 4.59998 27.101 3.83331 25.8743 3.83331H8.62435C7.39768 3.83331 6.30518 4.59998 5.90268 5.74998L1.91602 17.25V32.5833C1.91602 33.0916 2.11795 33.5792 2.47739 33.9386C2.83684 34.298 3.32435 34.5 3.83268 34.5H5.74935C6.25768 34.5 6.74519 34.298 7.10464 33.9386C7.46408 33.5792 7.66602 33.0916 7.66602 32.5833V24.7441C7.31192 24.6177 6.98628 24.4225 6.70779 24.1699C6.4293 23.9173 6.20344 23.6121 6.04317 23.272C5.8829 22.9319 5.79137 22.5634 5.77384 22.1878C5.75631 21.8123 5.81312 21.4369 5.94102 21.0833C6.36268 19.9333 7.41685 19.1666 8.62435 19.1666H8.75852L10.1002 15.3333H5.74935L8.62435 6.70831H28.9218L28.596 5.74998Z"/>
</mask>
<path d="M15.3327 21.0833L18.2077 12.4583H35.4577L38.3327 21.0833M35.4577 30.6666C34.6952 30.6666 33.9639 30.3637 33.4248 29.8246C32.8856 29.2854 32.5827 28.5541 32.5827 27.7916C32.5827 27.0292 32.8856 26.2979 33.4248 25.7587C33.9639 25.2195 34.6952 24.9166 35.4577 24.9166C36.2202 24.9166 36.9514 25.2195 37.4906 25.7587C38.0298 26.2979 38.3327 27.0292 38.3327 27.7916C38.3327 28.5541 38.0298 29.2854 37.4906 29.8246C36.9514 30.3637 36.2202 30.6666 35.4577 30.6666ZM18.2077 30.6666C17.4452 30.6666 16.7139 30.3637 16.1747 29.8246C15.6356 29.2854 15.3327 28.5541 15.3327 27.7916C15.3327 27.0292 15.6356 26.2979 16.1747 25.7587C16.7139 25.2195 17.4452 24.9166 18.2077 24.9166C18.9702 24.9166 19.7014 25.2195 20.2406 25.7587C20.7798 26.2979 21.0827 27.0292 21.0827 27.7916C21.0827 28.5541 20.7798 29.2854 20.2406 29.8246C19.7014 30.3637 18.9702 30.6666 18.2077 30.6666ZM38.1793 11.5C37.7768 10.35 36.6843 9.58331 35.4577 9.58331H18.2077C16.981 9.58331 15.8885 10.35 15.486 11.5L11.4993 23V38.3333C11.4993 38.8416 11.7013 39.3292 12.0607 39.6886C12.4202 40.048 12.9077 40.25 13.416 40.25H15.3327C15.841 40.25 16.3285 40.048 16.688 39.6886C17.0474 39.3292 17.2493 38.8416 17.2493 38.3333V36.4166H36.416V38.3333C36.416 38.8416 36.6179 39.3292 36.9774 39.6886C37.3368 40.048 37.8243 40.25 38.3327 40.25H40.2493C40.7577 40.25 41.2452 40.048 41.6046 39.6886C41.9641 39.3292 42.166 38.8416 42.166 38.3333V23L38.1793 11.5ZM28.596 5.74998C28.1935 4.59998 27.101 3.83331 25.8743 3.83331H8.62435C7.39768 3.83331 6.30518 4.59998 5.90268 5.74998L1.91602 17.25V32.5833C1.91602 33.0916 2.11795 33.5792 2.47739 33.9386C2.83684 34.298 3.32435 34.5 3.83268 34.5H5.74935C6.25768 34.5 6.74519 34.298 7.10464 33.9386C7.46408 33.5792 7.66602 33.0916 7.66602 32.5833V24.7441C7.31192 24.6177 6.98628 24.4225 6.70779 24.1699C6.4293 23.9173 6.20344 23.6121 6.04317 23.272C5.8829 22.9319 5.79137 22.5634 5.77384 22.1878C5.75631 21.8123 5.81312 21.4369 5.94102 21.0833C6.36268 19.9333 7.41685 19.1666 8.62435 19.1666H8.75852L10.1002 15.3333H5.74935L8.62435 6.70831H28.9218L28.596 5.74998Z" fill="white"/>
<path d="M18.2077 12.4583V11.4583H17.4869L17.259 12.1421L18.2077 12.4583ZM35.4577 12.4583L36.4064 12.1421L36.1784 11.4583H35.4577V12.4583ZM35.4577 30.6666V31.6666V30.6666ZM33.4248 29.8246L32.7176 30.5317L33.4248 29.8246ZM33.4248 25.7587L32.7176 25.0516L33.4248 25.7587ZM35.4577 24.9166V23.9166V24.9166ZM18.2077 30.6666V31.6666V30.6666ZM15.3327 27.7916H14.3327H15.3327ZM18.2077 24.9166V23.9166V24.9166ZM21.0827 27.7916H22.0827H21.0827ZM38.1793 11.5L39.1242 11.1724L39.1232 11.1696L38.1793 11.5ZM15.486 11.5L14.5422 11.1696L14.5412 11.1724L15.486 11.5ZM11.4993 23L10.5545 22.6724L10.4993 22.8316V23H11.4993ZM17.2493 36.4166V35.4166H16.2493V36.4166H17.2493ZM36.416 36.4166H37.416V35.4166H36.416V36.4166ZM42.166 23H43.166V22.8316L43.1109 22.6724L42.166 23ZM28.596 5.74998L29.5428 5.42806L29.5399 5.41963L28.596 5.74998ZM5.90268 5.74998L4.95882 5.41963L4.95785 5.42244L5.90268 5.74998ZM1.91602 17.25L0.971179 16.9224L0.916016 17.0816V17.25H1.91602ZM1.91602 32.5833H0.916016H1.91602ZM7.66602 32.5833H8.66602H7.66602ZM7.66602 24.7441H8.66602V24.0394L8.00236 23.8024L7.66602 24.7441ZM5.94102 21.0833L5.00213 20.7391L5.00064 20.7432L5.94102 21.0833ZM8.75852 19.1666V20.1666H9.468L9.70237 19.497L8.75852 19.1666ZM10.1002 15.3333L11.044 15.6637L11.5097 14.3333H10.1002V15.3333ZM5.74935 15.3333L4.80067 15.0171L4.36192 16.3333H5.74935V15.3333ZM8.62435 6.70831V5.70831H7.90359L7.67567 6.39209L8.62435 6.70831ZM28.9218 6.70831V7.70831H30.3181L29.8686 6.38641L28.9218 6.70831ZM15.3327 21.0833L16.2814 21.3995L19.1564 12.7745L18.2077 12.4583L17.259 12.1421L14.384 20.7671L15.3327 21.0833ZM18.2077 12.4583V13.4583H35.4577V12.4583V11.4583H18.2077V12.4583ZM35.4577 12.4583L34.509 12.7745L37.384 21.3995L38.3327 21.0833L39.2814 20.7671L36.4064 12.1421L35.4577 12.4583ZM35.4577 30.6666V29.6666C34.9604 29.6666 34.4835 29.4691 34.1319 29.1175L33.4248 29.8246L32.7176 30.5317C33.4443 31.2584 34.43 31.6666 35.4577 31.6666V30.6666ZM33.4248 29.8246L34.1319 29.1175C33.7802 28.7658 33.5827 28.2889 33.5827 27.7916H32.5827H31.5827C31.5827 28.8194 31.9909 29.805 32.7176 30.5317L33.4248 29.8246ZM32.5827 27.7916H33.5827C33.5827 27.2944 33.7802 26.8175 34.1319 26.4658L33.4248 25.7587L32.7176 25.0516C31.9909 25.7783 31.5827 26.7639 31.5827 27.7916H32.5827ZM33.4248 25.7587L34.1319 26.4658C34.4835 26.1142 34.9604 25.9166 35.4577 25.9166V24.9166V23.9166C34.43 23.9166 33.4443 24.3249 32.7176 25.0516L33.4248 25.7587ZM35.4577 24.9166V25.9166C35.955 25.9166 36.4319 26.1142 36.7835 26.4658L37.4906 25.7587L38.1977 25.0516C37.471 24.3249 36.4854 23.9166 35.4577 23.9166V24.9166ZM37.4906 25.7587L36.7835 26.4658C37.1351 26.8175 37.3327 27.2944 37.3327 27.7916H38.3327H39.3327C39.3327 26.7639 38.9244 25.7783 38.1977 25.0516L37.4906 25.7587ZM38.3327 27.7916H37.3327C37.3327 28.2889 37.1351 28.7658 36.7835 29.1175L37.4906 29.8246L38.1977 30.5317C38.9244 29.805 39.3327 28.8194 39.3327 27.7916H38.3327ZM37.4906 29.8246L36.7835 29.1175C36.4319 29.4691 35.955 29.6666 35.4577 29.6666V30.6666V31.6666C36.4854 31.6666 37.471 31.2584 38.1977 30.5317L37.4906 29.8246ZM18.2077 30.6666V29.6666C17.7104 29.6666 17.2335 29.4691 16.8819 29.1175L16.1747 29.8246L15.4676 30.5317C16.1943 31.2584 17.18 31.6666 18.2077 31.6666V30.6666ZM16.1747 29.8246L16.8819 29.1175C16.5302 28.7658 16.3327 28.2889 16.3327 27.7916H15.3327H14.3327C14.3327 28.8194 14.7409 29.805 15.4676 30.5317L16.1747 29.8246ZM15.3327 27.7916H16.3327C16.3327 27.2944 16.5302 26.8175 16.8819 26.4658L16.1747 25.7587L15.4676 25.0516C14.7409 25.7783 14.3327 26.7639 14.3327 27.7916H15.3327ZM16.1747 25.7587L16.8819 26.4658C17.2335 26.1142 17.7104 25.9166 18.2077 25.9166V24.9166V23.9166C17.18 23.9166 16.1943 24.3249 15.4676 25.0516L16.1747 25.7587ZM18.2077 24.9166V25.9166C18.705 25.9166 19.1819 26.1142 19.5335 26.4658L20.2406 25.7587L20.9477 25.0516C20.221 24.3249 19.2354 23.9166 18.2077 23.9166V24.9166ZM20.2406 25.7587L19.5335 26.4658C19.8851 26.8175 20.0827 27.2944 20.0827 27.7916H21.0827H22.0827C22.0827 26.7639 21.6744 25.7783 20.9477 25.0516L20.2406 25.7587ZM21.0827 27.7916H20.0827C20.0827 28.2889 19.8851 28.7658 19.5335 29.1175L20.2406 29.8246L20.9477 30.5317C21.6744 29.805 22.0827 28.8194 22.0827 27.7916H21.0827ZM20.2406 29.8246L19.5335 29.1175C19.1819 29.4691 18.705 29.6666 18.2077 29.6666V30.6666V31.6666C19.2354 31.6666 20.221 31.2584 20.9477 30.5317L20.2406 29.8246ZM38.1793 11.5L39.1232 11.1696C38.5782 9.61242 37.1028 8.58331 35.4577 8.58331V9.58331V10.5833C36.2659 10.5833 36.9755 11.0875 37.2355 11.8303L38.1793 11.5ZM35.4577 9.58331V8.58331H18.2077V9.58331V10.5833H35.4577V9.58331ZM18.2077 9.58331V8.58331C16.5626 8.58331 15.0872 9.61242 14.5422 11.1696L15.486 11.5L16.4299 11.8303C16.6899 11.0875 17.3994 10.5833 18.2077 10.5833V9.58331ZM15.486 11.5L14.5412 11.1724L10.5545 22.6724L11.4993 23L12.4442 23.3275L16.4309 11.8275L15.486 11.5ZM11.4993 23H10.4993V38.3333H11.4993H12.4993V23H11.4993ZM11.4993 38.3333H10.4993C10.4993 39.1069 10.8066 39.8487 11.3536 40.3957L12.0607 39.6886L12.7678 38.9815C12.5959 38.8096 12.4993 38.5764 12.4993 38.3333H11.4993ZM12.0607 39.6886L11.3536 40.3957C11.9006 40.9427 12.6425 41.25 13.416 41.25V40.25V39.25C13.1729 39.25 12.9397 39.1534 12.7678 38.9815L12.0607 39.6886ZM13.416 40.25V41.25H15.3327V40.25V39.25H13.416V40.25ZM15.3327 40.25V41.25C16.1062 41.25 16.8481 40.9427 17.3951 40.3957L16.688 39.6886L15.9809 38.9815C15.809 39.1534 15.5758 39.25 15.3327 39.25V40.25ZM16.688 39.6886L17.3951 40.3957C17.9421 39.8487 18.2493 39.1069 18.2493 38.3333H17.2493H16.2493C16.2493 38.5764 16.1528 38.8096 15.9809 38.9815L16.688 39.6886ZM17.2493 38.3333H18.2493V36.4166H17.2493H16.2493V38.3333H17.2493ZM17.2493 36.4166V37.4166H36.416V36.4166V35.4166H17.2493V36.4166ZM36.416 36.4166H35.416V38.3333H36.416H37.416V36.4166H36.416ZM36.416 38.3333H35.416C35.416 39.1069 35.7233 39.8487 36.2703 40.3957L36.9774 39.6886L37.6845 38.9815C37.5126 38.8096 37.416 38.5764 37.416 38.3333H36.416ZM36.9774 39.6886L36.2703 40.3957C36.8173 40.9427 37.5591 41.25 38.3327 41.25V40.25V39.25C38.0896 39.25 37.8564 39.1534 37.6845 38.9815L36.9774 39.6886ZM38.3327 40.25V41.25H40.2493V40.25V39.25H38.3327V40.25ZM40.2493 40.25V41.25C41.0229 41.25 41.7648 40.9427 42.3117 40.3957L41.6046 39.6886L40.8975 38.9815C40.7256 39.1534 40.4925 39.25 40.2493 39.25V40.25ZM41.6046 39.6886L42.3117 40.3957C42.8587 39.8487 43.166 39.1069 43.166 38.3333H42.166H41.166C41.166 38.5764 41.0694 38.8096 40.8975 38.9815L41.6046 39.6886ZM42.166 38.3333H43.166V23H42.166H41.166V38.3333H42.166ZM42.166 23L43.1109 22.6724L39.1242 11.1724L38.1793 11.5L37.2345 11.8275L41.2212 23.3275L42.166 23ZM28.596 5.74998L29.5399 5.41963C28.9949 3.86242 27.5194 2.83331 25.8743 2.83331V3.83331V4.83331C26.6826 4.83331 27.3922 5.33754 27.6522 6.08033L28.596 5.74998ZM25.8743 3.83331V2.83331H8.62435V3.83331V4.83331H25.8743V3.83331ZM8.62435 3.83331V2.83331C6.97926 2.83331 5.50385 3.86242 4.95882 5.41963L5.90268 5.74998L6.84654 6.08033C7.10652 5.33754 7.8161 4.83331 8.62435 4.83331V3.83331ZM5.90268 5.74998L4.95785 5.42244L0.971179 16.9224L1.91602 17.25L2.86085 17.5775L6.84752 6.07752L5.90268 5.74998ZM1.91602 17.25H0.916016V32.5833H1.91602H2.91602V17.25H1.91602ZM1.91602 32.5833H0.916016C0.916016 33.3569 1.22331 34.0987 1.77029 34.6457L2.47739 33.9386L3.1845 33.2315C3.01259 33.0596 2.91602 32.8264 2.91602 32.5833H1.91602ZM2.47739 33.9386L1.77029 34.6457C2.31727 35.1927 3.05914 35.5 3.83268 35.5V34.5V33.5C3.58957 33.5 3.35641 33.4034 3.1845 33.2315L2.47739 33.9386ZM3.83268 34.5V35.5H5.74935V34.5V33.5H3.83268V34.5ZM5.74935 34.5V35.5C6.52289 35.5 7.26476 35.1927 7.81174 34.6457L7.10464 33.9386L6.39753 33.2315C6.22562 33.4034 5.99247 33.5 5.74935 33.5V34.5ZM7.10464 33.9386L7.81174 34.6457C8.35873 34.0987 8.66602 33.3569 8.66602 32.5833H7.66602H6.66602C6.66602 32.8264 6.56944 33.0596 6.39753 33.2315L7.10464 33.9386ZM7.66602 32.5833H8.66602V24.7441H7.66602H6.66602V32.5833H7.66602ZM7.66602 24.7441L8.00236 23.8024C7.77226 23.7202 7.56065 23.5934 7.37967 23.4292L6.70779 24.1699L6.03591 24.9106C6.41192 25.2517 6.85158 25.5151 7.32967 25.6859L7.66602 24.7441ZM6.70779 24.1699L7.37967 23.4292C7.1987 23.2651 7.05192 23.0668 6.94777 22.8458L6.04317 23.272L5.13857 23.6983C5.35496 24.1575 5.65991 24.5695 6.03591 24.9106L6.70779 24.1699ZM6.04317 23.272L6.94777 22.8458C6.84362 22.6247 6.78414 22.3853 6.77275 22.1412L5.77384 22.1878L4.77493 22.2345C4.7986 22.7416 4.92217 23.239 5.13857 23.6983L6.04317 23.272ZM5.77384 22.1878L6.77275 22.1412C6.76136 21.8972 6.79828 21.6532 6.88139 21.4235L5.94102 21.0833L5.00064 20.7432C4.82796 21.2206 4.75126 21.7274 4.77493 22.2345L5.77384 22.1878ZM5.94102 21.0833L6.87989 21.4276C7.16448 20.6514 7.85731 20.1666 8.62435 20.1666V19.1666V18.1666C6.97639 18.1666 5.56089 19.2152 5.00214 20.7391L5.94102 21.0833ZM8.62435 19.1666V20.1666H8.75852V19.1666V18.1666H8.62435V19.1666ZM8.75852 19.1666L9.70237 19.497L11.044 15.6637L10.1002 15.3333L9.15632 15.003L7.81466 18.8363L8.75852 19.1666ZM10.1002 15.3333V14.3333H5.74935V15.3333V16.3333H10.1002V15.3333ZM5.74935 15.3333L6.69803 15.6495L9.57303 7.02454L8.62435 6.70831L7.67567 6.39209L4.80067 15.0171L5.74935 15.3333ZM8.62435 6.70831V7.70831H28.9218V6.70831V5.70831H8.62435V6.70831ZM28.9218 6.70831L29.8686 6.38641L29.5428 5.42808L28.596 5.74998L27.6492 6.07188L27.9751 7.03022L28.9218 6.70831Z" fill="white" mask="url(#path-1-inside-1_104_74)"/>
</svg>
