<svg width="46" height="46" viewBox="0 0 46 46" fill="none" xmlns="http://www.w3.org/2000/svg">
<g clip-path="url(#clip0_104_78)">
<path d="M4.31254 7.5191V22.1126C4.31338 26.7251 5.71152 31.2292 8.32275 35.0315C10.934 38.8337 14.6358 41.7557 18.9405 43.4125L20.9358 44.1792C22.2645 44.6903 23.7356 44.6903 25.0643 44.1792L27.0595 43.4125C31.3643 41.7557 35.0661 38.8337 37.6773 35.0315C40.2886 31.2292 41.6867 26.7251 41.6875 22.1126V7.5191C41.6905 6.9701 41.5351 6.43187 41.2401 5.96889C40.945 5.5059 40.5228 5.13778 40.0239 4.9086C34.6569 2.56603 28.8557 1.3832 23 1.43752C17.1443 1.3832 11.3432 2.56603 5.97621 4.9086C5.47732 5.13778 5.05506 5.5059 4.76 5.96889C4.46494 6.43187 4.30958 6.9701 4.31254 7.5191Z" stroke="white" stroke-width="4" stroke-linecap="round" stroke-linejoin="round"/>
<path d="M32.9671 21.5625C32.6916 23.4712 31.8734 25.2605 30.61 26.7175C29.3465 28.1744 27.691 29.2376 25.8406 29.7805C23.9901 30.3234 22.0226 30.3231 20.1722 29.7797C18.3219 29.2363 16.6667 28.1726 15.4037 26.7152C14.1407 25.2579 13.323 23.4683 13.0481 21.5596C12.7732 19.6508 13.0525 17.7032 13.8529 15.9487C14.6533 14.1941 15.941 12.7065 17.5628 11.663C19.1845 10.6195 21.072 10.0639 23.0004 10.0625" stroke="white" stroke-width="4" stroke-linecap="round" stroke-linejoin="round"/>
<path d="M33.0632 12.5772L23.89 21.7504C23.6539 21.9859 23.3341 22.1181 23.0007 22.1181C22.6672 22.1181 22.3474 21.9859 22.1113 21.7504L19.2363 18.8658" stroke="white" stroke-width="4" stroke-linecap="round" stroke-linejoin="round"/>
</g>
<defs>
<clipPath id="clip0_104_78">
<rect width="46" height="46" fill="white"/>
</clipPath>
</defs>
</svg>
