<svg width="75" height="31" viewBox="0 0 75 31" fill="none" xmlns="http://www.w3.org/2000/svg">
<path d="M1.15141 26.944V22.976L9.53541 15.136C10.1327 14.5814 10.5701 14.0907 10.8474 13.664C11.1461 13.2374 11.3381 12.8534 11.4234 12.512C11.5301 12.1494 11.5834 11.8187 11.5834 11.52C11.5834 10.7947 11.3381 10.2294 10.8474 9.82403C10.3781 9.4187 9.66341 9.21603 8.70341 9.21603C7.89274 9.21603 7.13541 9.39736 6.43141 9.76003C5.72741 10.1227 5.15141 10.6667 4.70341 11.392L-0.000593752 8.76803C0.831406 7.36003 2.03674 6.22936 3.61541 5.37603C5.19407 4.5227 7.08207 4.09603 9.27941 4.09603C11.0074 4.09603 12.5221 4.37336 13.8234 4.92803C15.1247 5.4827 16.1381 6.27203 16.8634 7.29603C17.6101 8.32003 17.9834 9.52536 17.9834 10.912C17.9834 11.6374 17.8874 12.3627 17.6954 13.088C17.5034 13.792 17.1301 14.5494 16.5754 15.36C16.0421 16.1494 15.2421 17.0347 14.1754 18.016L7.51941 24.16L6.46341 21.92H18.5914V26.944H1.15141ZM20.0242 22.656V18.528L30.0722 4.54403H36.6322L26.8722 18.528L23.8642 17.632H41.3682V22.656H20.0242ZM31.8642 26.944V22.656L32.0562 17.632V13.824H38.0402V26.944H31.8642ZM41.1012 30.144L51.6612 2.86102e-05H57.0692L46.5092 30.144H41.1012ZM60.1402 26.944L68.8762 6.88003L70.5722 9.56803H59.2122L61.8042 6.65603V13.024H56.3962V4.54403H74.9562V8.51203L67.0522 26.944H60.1402Z" fill="white"/>
</svg>
