<svg width="46" height="46" viewBox="0 0 46 46" fill="none" xmlns="http://www.w3.org/2000/svg">
<path fill-rule="evenodd" clip-rule="evenodd" d="M31.625 38.8125H14.375C13.2313 38.8125 12.1344 38.3582 11.3256 37.5494C10.5169 36.7406 10.0625 35.6437 10.0625 34.5V11.5C10.0625 10.3563 10.5169 9.25935 11.3256 8.4506C12.1344 7.64185 13.2313 7.1875 14.375 7.1875H22.3014C22.868 7.18762 23.429 7.2994 23.9524 7.51646C24.4758 7.73352 24.9513 8.05159 25.3517 8.4525L34.6754 17.7733C35.4833 18.5817 35.9373 19.6778 35.9375 20.8208V34.5C35.9375 35.6437 35.4831 36.7406 34.6744 37.5494C33.8656 38.3582 32.7687 38.8125 31.625 38.8125ZM37.7229 14.7229C38.5242 15.5239 39.1598 16.475 39.5934 17.5218C40.027 18.5686 40.2501 19.6906 40.25 20.8236V34.5C40.25 36.7875 39.3413 38.9813 37.7238 40.5988C36.1063 42.2163 33.9125 43.125 31.625 43.125H14.375C12.0875 43.125 9.89371 42.2163 8.2762 40.5988C6.6587 38.9813 5.75 36.7875 5.75 34.5V11.5C5.75 9.21251 6.6587 7.01871 8.2762 5.4012C9.89371 3.7837 12.0875 2.875 14.375 2.875H22.3014C23.4344 2.87486 24.5564 3.09798 25.6032 3.53159C26.65 3.9652 27.6011 4.60082 28.4021 5.40212L37.7229 14.7229ZM17.9486 15.8384C18.7306 15.2547 19.6621 14.8523 20.6943 14.6222V13.6562C20.6943 13.0844 20.9214 12.5359 21.3258 12.1316C21.7302 11.7272 22.2786 11.5 22.8505 11.5C23.4224 11.5 23.9708 11.7272 24.3752 12.1316C24.7796 12.5359 25.0068 13.0844 25.0068 13.6562V14.5504C26.5506 14.8292 27.8041 15.4388 28.7701 16.3214C28.9789 16.5128 29.1479 16.7435 29.2676 17.0002C29.3872 17.257 29.4551 17.5347 29.4674 17.8177C29.4797 18.1007 29.4361 18.3834 29.3392 18.6495C29.2422 18.9156 29.0938 19.1601 28.9024 19.3689C28.711 19.5777 28.4803 19.7467 28.2235 19.8663C27.9668 19.986 27.689 20.0539 27.406 20.0662C27.123 20.0784 26.8404 20.0349 26.5742 19.9379C26.3081 19.841 26.0637 19.6925 25.8549 19.5011C25.4696 19.1475 24.6704 18.6961 23 18.6961C21.666 18.6961 20.907 19.0124 20.5361 19.2884C20.2141 19.5299 20.1135 19.7829 20.1135 20.0761C20.1135 20.1164 20.1135 20.1394 20.1595 20.1998C20.309 20.3809 20.4939 20.5296 20.7029 20.6367C21.3641 21.0249 22.3503 21.3325 23.4399 21.5568L23.5836 21.5884C24.7164 21.8212 26.3321 22.1547 27.6661 22.8361C29.1698 23.6038 30.705 25.0298 30.705 27.462C30.705 29.6182 29.3595 31.0931 27.8875 31.9183C27.0192 32.407 26.0245 32.7233 25.0068 32.9015V33.7812C25.0068 34.3531 24.7796 34.9016 24.3752 35.3059C23.9708 35.7103 23.4224 35.9375 22.8505 35.9375C22.2786 35.9375 21.7302 35.7103 21.3258 35.3059C20.9214 34.9016 20.6943 34.3531 20.6943 33.7812V32.7779C19.7683 32.5414 18.882 32.1704 18.0636 31.6767C16.7325 30.8689 15.5135 29.6528 15.0046 28.152C14.9099 27.8827 14.8695 27.5973 14.8859 27.3123C14.9023 27.0274 14.9751 26.7485 15.1001 26.4918C15.2252 26.2352 15.3999 26.006 15.6142 25.8174C15.8285 25.6288 16.0781 25.4847 16.3485 25.3933C16.619 25.302 16.9049 25.2652 17.1896 25.2852C17.4744 25.3052 17.7523 25.3816 18.0074 25.5098C18.2624 25.6381 18.4894 25.8157 18.6752 26.0323C18.8611 26.249 19.0021 26.5004 19.09 26.772C19.1676 27.002 19.5126 27.5109 20.3061 27.9939C21.0594 28.4539 22.0168 28.7557 23 28.7557C24.15 28.7557 25.1505 28.5085 25.7772 28.1549C26.3752 27.8214 26.3925 27.5684 26.3925 27.462C26.3925 27.232 26.3695 27.0164 25.7054 26.6771C24.932 26.2833 23.8568 26.0504 22.563 25.7801C21.3325 25.5243 19.7944 25.1045 18.515 24.3541C17.2327 23.598 15.801 22.241 15.801 20.0761C15.801 18.3885 16.5715 16.8705 17.9486 15.8384Z" fill="white"/>
</svg>
