<svg width="46" height="46" viewBox="0 0 46 46" fill="none" xmlns="http://www.w3.org/2000/svg">
<path d="M23.0007 21.0833C25.5423 21.0833 27.9799 22.093 29.7771 23.8902C31.5743 25.6874 32.584 28.125 32.584 30.6666V42.1666H28.7507V30.6666C28.7507 29.2 28.1904 27.7887 27.1842 26.7216C26.178 25.6545 24.8021 25.0123 23.338 24.9262L23.0007 24.9166C21.534 24.9166 20.1227 25.4769 19.0557 26.4831C17.9886 27.4893 17.3463 28.8652 17.2602 30.3293L17.2507 30.6666V42.1666H13.4173V30.6666C13.4173 28.125 14.427 25.6874 16.2242 23.8902C18.0214 22.093 20.459 21.0833 23.0007 21.0833ZM10.5423 26.8333C11.079 26.8346 11.5965 26.8946 12.0948 27.0135C11.7683 27.9894 11.5743 29.0047 11.5179 30.0322L11.5007 30.6666V30.8315C11.2803 30.7528 11.0512 30.7013 10.8183 30.6781L10.5423 30.6666C9.82793 30.6666 9.13912 30.9326 8.61011 31.4127C8.0811 31.8928 7.74979 32.5527 7.68073 33.2637L7.66732 33.5416V42.1666H3.83398V33.5416C3.83398 31.7625 4.54075 30.0562 5.79881 28.7981C7.05687 27.5401 8.76316 26.8333 10.5423 26.8333ZM35.459 26.8333C37.2381 26.8333 38.9444 27.5401 40.2025 28.7981C41.4605 30.0562 42.1673 31.7625 42.1673 33.5416V42.1666H38.334V33.5416C38.334 32.8273 38.068 32.1384 37.5879 31.6094C37.1078 31.0804 36.4479 30.7491 35.7369 30.6801L35.459 30.6666C35.1217 30.6679 34.8022 30.7222 34.5007 30.8296V30.6666C34.5007 29.3901 34.2936 28.1635 33.9103 27.0173C34.4048 26.8966 34.9262 26.8333 35.459 26.8333ZM10.5423 15.3333C11.8131 15.3333 13.0319 15.8381 13.9305 16.7368C14.8291 17.6354 15.334 18.8542 15.334 20.125C15.334 21.3958 14.8291 22.6146 13.9305 23.5132C13.0319 24.4118 11.8131 24.9166 10.5423 24.9166C9.27149 24.9166 8.05271 24.4118 7.1541 23.5132C6.25549 22.6146 5.75065 21.3958 5.75065 20.125C5.75065 18.8542 6.25549 17.6354 7.1541 16.7368C8.05271 15.8381 9.27149 15.3333 10.5423 15.3333ZM35.459 15.3333C36.7298 15.3333 37.9486 15.8381 38.8472 16.7368C39.7458 17.6354 40.2506 18.8542 40.2506 20.125C40.2506 21.3958 39.7458 22.6146 38.8472 23.5132C37.9486 24.4118 36.7298 24.9166 35.459 24.9166C34.1882 24.9166 32.9694 24.4118 32.0708 23.5132C31.1722 22.6146 30.6673 21.3958 30.6673 20.125C30.6673 18.8542 31.1722 17.6354 32.0708 16.7368C32.9694 15.8381 34.1882 15.3333 35.459 15.3333ZM10.5423 19.1666C10.2882 19.1666 10.0444 19.2676 9.86467 19.4473C9.68495 19.6271 9.58398 19.8708 9.58398 20.125C9.58398 20.3791 9.68495 20.6229 9.86467 20.8026C10.0444 20.9823 10.2882 21.0833 10.5423 21.0833C10.7965 21.0833 11.0402 20.9823 11.22 20.8026C11.3997 20.6229 11.5007 20.3791 11.5007 20.125C11.5007 19.8708 11.3997 19.6271 11.22 19.4473C11.0402 19.2676 10.7965 19.1666 10.5423 19.1666ZM35.459 19.1666C35.2048 19.1666 34.9611 19.2676 34.7813 19.4473C34.6016 19.6271 34.5007 19.8708 34.5007 20.125C34.5007 20.3791 34.6016 20.6229 34.7813 20.8026C34.9611 20.9823 35.2048 21.0833 35.459 21.0833C35.7132 21.0833 35.9569 20.9823 36.1366 20.8026C36.3163 20.6229 36.4173 20.3791 36.4173 20.125C36.4173 19.8708 36.3163 19.6271 36.1366 19.4473C35.9569 19.2676 35.7132 19.1666 35.459 19.1666ZM23.0007 3.83331C25.034 3.83331 26.984 4.64105 28.4218 6.07883C29.8596 7.51661 30.6673 9.46665 30.6673 11.5C30.6673 13.5333 29.8596 15.4834 28.4218 16.9211C26.984 18.3589 25.034 19.1666 23.0007 19.1666C20.9673 19.1666 19.0173 18.3589 17.5795 16.9211C16.1417 15.4834 15.334 13.5333 15.334 11.5C15.334 9.46665 16.1417 7.51661 17.5795 6.07883C19.0173 4.64105 20.9673 3.83331 23.0007 3.83331ZM23.0007 7.66665C21.984 7.66665 21.009 8.07051 20.2901 8.7894C19.5712 9.50829 19.1673 10.4833 19.1673 11.5C19.1673 12.5166 19.5712 13.4917 20.2901 14.2106C21.009 14.9294 21.984 15.3333 23.0007 15.3333C24.0173 15.3333 24.9923 14.9294 25.7112 14.2106C26.4301 13.4917 26.834 12.5166 26.834 11.5C26.834 10.4833 26.4301 9.50829 25.7112 8.7894C24.9923 8.07051 24.0173 7.66665 23.0007 7.66665Z" fill="white"/>
</svg>
