<svg width="71" height="57" viewBox="0 0 71 57" fill="none" xmlns="http://www.w3.org/2000/svg">
<g clip-path="url(#clip0_140_44)">
<path d="M5.325 0C2.38516 0 0 2.39355 0 5.34375V40.9688C0 43.9189 2.38516 46.3125 5.325 46.3125H7.1C7.1 52.2129 11.8703 57 17.75 57C23.6297 57 28.4 52.2129 28.4 46.3125H42.6C42.6 52.2129 47.3703 57 53.25 57C59.1297 57 63.9 52.2129 63.9 46.3125H67.45C69.4136 46.3125 71 44.7205 71 42.75C71 40.7795 69.4136 39.1875 67.45 39.1875V26.4182C67.45 24.5256 66.7067 22.7109 65.3755 21.375L56.8 12.7693C55.4688 11.4334 53.6605 10.6875 51.7745 10.6875H46.15V5.34375C46.15 2.39355 43.7648 0 40.825 0H5.325ZM46.15 17.8125H51.7745L60.35 26.4182V28.5H46.15V17.8125ZM12.425 46.3125C12.425 44.8952 12.986 43.536 13.9847 42.5339C14.9833 41.5317 16.3377 40.9688 17.75 40.9688C19.1623 40.9688 20.5167 41.5317 21.5153 42.5339C22.514 43.536 23.075 44.8952 23.075 46.3125C23.075 47.7298 22.514 49.089 21.5153 50.0911C20.5167 51.0933 19.1623 51.6562 17.75 51.6562C16.3377 51.6562 14.9833 51.0933 13.9847 50.0911C12.986 49.089 12.425 47.7298 12.425 46.3125ZM53.25 40.9688C54.6623 40.9688 56.0167 41.5317 57.0153 42.5339C58.014 43.536 58.575 44.8952 58.575 46.3125C58.575 47.7298 58.014 49.089 57.0153 50.0911C56.0167 51.0933 54.6623 51.6562 53.25 51.6562C51.8377 51.6562 50.4833 51.0933 49.4847 50.0911C48.486 49.089 47.925 47.7298 47.925 46.3125C47.925 44.8952 48.486 43.536 49.4847 42.5339C50.4833 41.5317 51.8377 40.9688 53.25 40.9688Z" fill="black"/>
</g>
<defs>
<clipPath id="clip0_140_44">
<rect width="71" height="57" fill="white"/>
</clipPath>
</defs>
</svg>
