<svg width="46" height="46" viewBox="0 0 46 46" fill="none" xmlns="http://www.w3.org/2000/svg">
<path d="M5.58983 18.7643C5.03348 19.3205 4.59215 19.9808 4.29104 20.7076C3.98994 21.4344 3.83496 22.2134 3.83496 23.0001C3.83496 23.7868 3.98994 24.5658 4.29104 25.2926C4.59215 26.0194 5.03348 26.6797 5.58983 27.2359L18.764 40.4101C19.3202 40.9664 19.9805 41.4076 20.7072 41.7086C21.4339 42.0096 22.2128 42.1645 22.9994 42.1645C23.786 42.1645 24.5649 42.0096 25.2916 41.7086C26.0183 41.4076 26.6786 40.9664 27.2347 40.4101L40.4099 27.234C41.5329 26.1108 42.1638 24.5875 42.1638 22.9991C42.1638 21.4108 41.5329 19.8875 40.4099 18.7643L27.2357 5.5891C26.6795 5.0329 26.0192 4.59169 25.2925 4.29067C24.5658 3.98965 23.7869 3.83472 23.0003 3.83472C22.2138 3.83472 21.4349 3.98965 20.7082 4.29067C19.9815 4.59169 19.3212 5.0329 18.765 5.5891L5.58983 18.7643ZM7.2832 25.5426C6.94939 25.2088 6.68459 24.8126 6.50393 24.3765C6.32327 23.9405 6.23028 23.4731 6.23028 23.0011C6.23028 22.529 6.32327 22.0616 6.50393 21.6256C6.68459 21.1895 6.94939 20.7933 7.2832 20.4596L20.4603 7.28344C21.1342 6.60957 22.0483 6.231 23.0013 6.231C23.9544 6.231 24.8684 6.60957 25.5423 7.28344L38.7165 20.4586C39.0503 20.7923 39.3151 21.1885 39.4958 21.6246C39.6765 22.0607 39.7695 22.5281 39.7695 23.0001C39.7695 23.4721 39.6765 23.9395 39.4958 24.3756C39.3151 24.8117 39.0503 25.2079 38.7165 25.5416L25.5414 38.7168C24.8674 39.3906 23.9534 39.7692 23.0003 39.7692C22.0473 39.7692 21.1333 39.3906 20.4593 38.7168L7.2832 25.5426ZM25.5232 12.8101C25.2972 12.592 24.9945 12.4713 24.6804 12.4742C24.3664 12.477 24.0659 12.603 23.8439 12.8252C23.6219 13.0474 23.496 13.3479 23.4933 13.662C23.4907 13.976 23.6115 14.2786 23.8298 14.5045L26.5764 17.2501H23.2395C21.6509 17.2501 20.1274 17.8811 19.0042 19.0044C17.8809 20.1277 17.2499 21.6511 17.2499 23.2397V29.4689C17.2499 29.7866 17.3761 30.0913 17.6007 30.3159C17.8254 30.5406 18.1301 30.6668 18.4478 30.6668C18.7655 30.6668 19.0702 30.5406 19.2948 30.3159C19.5195 30.0913 19.6457 29.7866 19.6457 29.4689V23.2397C19.6457 22.2866 20.0243 21.3725 20.6983 20.6985C21.3722 20.0246 22.2863 19.6459 23.2395 19.6459H26.5764L23.8298 22.3925C23.6115 22.6184 23.4907 22.921 23.4933 23.235C23.496 23.5491 23.6219 23.8496 23.8439 24.0718C24.0659 24.294 24.3664 24.42 24.6804 24.4228C24.9945 24.4257 25.2972 24.305 25.5232 24.0869L30.3148 19.2952C30.4261 19.1839 30.5144 19.0519 30.5746 18.9065C30.6348 18.7612 30.6658 18.6054 30.6658 18.448C30.6658 18.2907 30.6348 18.1349 30.5746 17.9895C30.5144 17.8442 30.4261 17.7121 30.3148 17.6009L25.5232 12.8101Z" fill="white"/>
</svg>
