<svg width="46" height="46" viewBox="0 0 46 46" fill="none" xmlns="http://www.w3.org/2000/svg">
<path d="M13.4168 42.1666H5.84593C5.30288 42.1666 4.84799 41.9673 4.48127 41.5686C4.11454 41.1699 3.94652 40.6984 3.97718 40.1541C4.26468 35.3305 5.63829 31.186 8.09802 27.7207C10.5577 24.2553 14.2473 22.0429 19.1668 21.0833V15.3333C17.9209 15.1735 16.5154 14.8701 14.9501 14.4228C13.3848 13.9756 11.8751 13.3687 10.421 12.602C8.9669 11.8353 7.68146 10.9173 6.56468 9.84775C5.4479 8.77825 4.72915 7.55606 4.40843 6.18117C4.24871 5.57422 4.35285 5.03117 4.72085 4.552C5.08885 4.07284 5.59165 3.83325 6.22927 3.83325H39.7709C40.4098 3.83325 40.9133 4.07284 41.2813 4.552C41.6493 5.03117 41.7528 5.57422 41.5918 6.18117C41.2723 7.55478 40.5536 8.77697 39.4355 9.84775C38.3175 10.9185 37.032 11.8366 35.5792 12.602C34.1263 13.3674 32.6167 13.9743 31.0501 14.4228C29.4835 14.8713 28.078 15.1748 26.8334 15.3333V21.0833C31.7529 22.0416 35.4425 24.2541 37.9022 27.7207C40.3619 31.1873 41.7355 35.3318 42.023 40.1541C42.055 40.6971 41.8876 41.1686 41.5208 41.5686C41.1541 41.9685 40.6986 42.1679 40.1543 42.1666H32.5834C32.0404 42.1666 31.5855 41.9826 31.2188 41.6146C30.852 41.2466 30.668 40.7917 30.6668 40.2499C30.6655 39.7081 30.8495 39.2533 31.2188 38.8853C31.588 38.5173 32.0429 38.3333 32.5834 38.3333H38.0938C37.5188 33.4777 35.7057 29.9638 32.6544 27.7916C29.603 25.6194 26.3849 24.5333 23.0001 24.5333C19.6153 24.5333 16.3965 25.6194 13.3439 27.7916C10.2913 29.9638 8.47879 33.4777 7.90635 38.3333H13.4168C13.9598 38.3333 14.4153 38.5173 14.7833 38.8853C15.1513 39.2533 15.3347 39.7081 15.3334 40.2499C15.3322 40.7917 15.1482 41.2472 14.7814 41.6165C14.4147 41.9858 13.9598 42.1691 13.4168 42.1666ZM23.0001 11.7395C25.907 11.7395 28.4945 11.3485 30.7626 10.5665C33.0307 9.7845 34.8355 8.81786 36.1772 7.66659H9.82302C11.1647 8.81659 12.9695 9.78322 15.2376 10.5665C17.5057 11.3498 20.0932 11.7408 23.0001 11.7395ZM23.0001 42.1666C21.9459 42.1666 21.0438 41.7916 20.2938 41.0415C19.5437 40.2914 19.168 39.3887 19.1668 38.3333C19.1668 37.7902 19.2709 37.2951 19.4792 36.8478C19.6875 36.4006 19.9667 36.0013 20.3168 35.6499C20.7001 35.2666 21.2195 34.8756 21.875 34.4769C22.5305 34.0783 23.3048 33.6706 24.198 33.2541L28.6063 31.4812C28.9897 31.3214 29.3334 31.3936 29.6375 31.6978C29.9416 32.0019 30.0132 32.3449 29.8522 32.727L28.0793 37.1353C27.664 38.0298 27.2564 38.8047 26.8564 39.4603C26.4565 40.1157 26.0655 40.6345 25.6834 41.0166C25.332 41.368 24.9327 41.6478 24.4855 41.8561C24.0383 42.0644 23.5432 42.1679 23.0001 42.1666Z" fill="white"/>
</svg>
