<svg width="46" height="46" viewBox="0 0 46 46" fill="none" xmlns="http://www.w3.org/2000/svg">
<path d="M29.2979 20.8348L25.0303 27.618C24.8557 27.86 24.6434 28.0723 24.4014 28.2469C23.8173 28.6544 23.096 28.8151 22.3941 28.6941C21.6922 28.5731 21.0663 28.1802 20.6523 27.6006C20.2383 27.021 20.0696 26.3016 20.1828 25.5984C20.296 24.8951 20.682 24.265 21.2569 23.8445L28.0401 19.577C28.1943 19.4695 28.3777 19.4119 28.5657 19.4119C28.7536 19.4119 28.9371 19.4695 29.0913 19.577C29.2849 19.7168 29.4154 19.9276 29.4541 20.1632C29.4928 20.3989 29.4367 20.6404 29.2979 20.8348Z" fill="white"/>
<path d="M23 5.75C11.8863 5.75 2.87502 14.7523 2.87502 25.866C2.8682 30.783 4.66833 35.5312 7.93322 39.2078C8.03205 39.3156 8.12189 39.4234 8.22072 39.5223C8.43333 39.7524 8.69142 39.936 8.97864 40.0612C9.26586 40.1864 9.57596 40.2507 9.8893 40.2498C10.2026 40.249 10.5124 40.1831 10.7989 40.0563C11.0855 39.9295 11.3426 39.7446 11.5539 39.5133C13.0107 37.9301 14.7802 36.6664 16.7503 35.8019C18.7205 34.9375 20.8486 34.4912 23 34.4912C25.1515 34.4912 27.2796 34.9375 29.2497 35.8019C31.2199 36.6664 32.9893 37.9301 34.4461 39.5133C34.6575 39.7446 34.9146 39.9295 35.2011 40.0563C35.4877 40.1831 35.7974 40.249 36.1107 40.2498C36.4241 40.2507 36.7342 40.1864 37.0214 40.0612C37.3086 39.936 37.5667 39.7524 37.7793 39.5223L38.0668 39.2078C41.3317 35.5312 43.1318 30.783 43.125 25.866C43.125 14.7523 34.1137 5.75 23 5.75Z" stroke="white" stroke-width="3" stroke-linecap="round" stroke-linejoin="round"/>
<path d="M23 11.5V14.375M37.375 25.875H34.5M11.5 25.875H8.625M14.8682 17.7432L12.8351 15.7101M31.1318 17.7432L33.1649 15.7101" stroke="white" stroke-width="3" stroke-miterlimit="10" stroke-linecap="round"/>
</svg>
