<svg width="46" height="46" viewBox="0 0 46 46" fill="none" xmlns="http://www.w3.org/2000/svg">
<path fill-rule="evenodd" clip-rule="evenodd" d="M23.7958 27.3746C22.2621 26.3768 21.1876 24.8107 20.8085 23.0207C20.4293 21.2307 20.7767 19.3635 21.7741 17.8296L26.7881 10.1154C27.786 8.58123 29.3525 7.50635 31.143 7.12721C32.0296 6.93948 32.9444 6.9282 33.8353 7.09403C34.7262 7.25985 35.5757 7.59953 36.3354 8.09367C37.095 8.58781 37.7499 9.22673 38.2626 9.97395C38.7753 10.7212 39.1358 11.5621 39.3235 12.4486C39.5113 13.3352 39.5225 14.25 39.3567 15.1409C39.1909 16.0318 38.8512 16.8813 38.3571 17.641L33.3431 25.3529C32.3456 26.8869 30.7797 27.9619 28.9897 28.3415C27.1997 28.721 25.3323 28.3741 23.7981 27.3769M20.7851 27.8208C19.4026 26.3165 18.5602 24.3948 18.3907 22.3588C18.2212 20.3228 18.7343 18.2883 19.849 16.5761L24.863 8.86417C25.5217 7.85128 26.3735 6.97806 27.3697 6.29436C28.366 5.61066 29.4871 5.12988 30.6691 4.87946C31.8512 4.62904 33.0709 4.6139 34.2588 4.83489C35.4467 5.05588 36.5794 5.50867 37.5923 6.16742C38.6052 6.82617 39.4784 7.67797 40.1621 8.6742C40.8458 9.67042 41.3266 10.7916 41.577 11.9736C41.8274 13.1556 41.8426 14.3754 41.6216 15.5633C41.4006 16.7512 40.9478 17.8839 40.2891 18.8968L35.2751 26.6087C34.5106 27.7854 33.4871 28.7717 32.2828 29.4921C31.0785 30.2124 29.7254 30.6477 28.327 30.7647C26.9286 30.8817 25.522 30.6772 24.2148 30.167C22.9076 29.6567 21.7344 28.8542 20.7851 27.8208Z" fill="white"/>
<path fill-rule="evenodd" clip-rule="evenodd" d="M12.4154 36.4365C11.6557 35.9424 11.0007 35.3035 10.488 34.5563C9.97523 33.8091 9.61468 32.9682 9.42694 32.0816C9.23921 31.195 9.22795 30.2801 9.39383 29.3892C9.5597 28.4983 9.89945 27.6488 10.3937 26.8892L15.41 19.1773C15.904 18.4176 16.5427 17.7627 17.2898 17.25C18.0369 16.7372 18.8777 16.3766 19.7641 16.1888C20.6505 16.0009 21.5653 15.9895 22.4562 16.1552C23.347 16.3209 24.1965 16.6604 24.9561 17.1544C25.7158 17.6484 26.3706 18.2872 26.8834 19.0343C27.3962 19.7813 27.7568 20.6221 27.9446 21.5086C28.1325 22.395 28.1439 23.3098 27.9782 24.2006C27.8125 25.0915 27.473 25.9409 26.979 26.7006L21.965 34.4125C20.9675 35.9465 19.4016 37.0215 17.6116 37.4011C15.8216 37.7806 13.9542 37.4337 12.42 36.4365M9.40697 36.8804C8.02398 35.3759 7.18125 33.4538 7.01175 31.4173C6.84225 29.3808 7.35562 27.3458 8.47087 25.6334L13.4849 17.9238C14.1435 16.9109 14.9951 16.0376 15.9912 15.3539C16.9873 14.6701 18.1083 14.1893 19.2902 13.9387C20.4721 13.6882 21.6918 13.6729 22.8797 13.8938C24.0675 14.1146 25.2002 14.5673 26.2131 15.2259C27.226 15.8845 28.0992 16.7361 28.783 17.7322C29.4667 18.7283 29.9476 19.8493 30.1981 21.0312C30.4486 22.2131 30.4639 23.4328 30.2431 24.6207C30.0222 25.8085 29.5696 26.9412 28.911 27.9541L23.897 35.666C23.1327 36.8429 22.1093 37.8294 20.9051 38.5499C19.701 39.2705 18.3479 39.706 16.9495 39.8232C15.5511 39.9404 14.1444 39.7362 12.8371 39.2261C11.5298 38.716 10.3565 37.9137 9.40697 36.8804Z" fill="white"/>
</svg>
