<svg width="46" height="46" viewBox="0 0 46 46" fill="none" xmlns="http://www.w3.org/2000/svg">
<path d="M13.4013 27.7956C12.893 27.7956 12.4055 27.9975 12.046 28.357C11.6866 28.7164 11.4847 29.2039 11.4847 29.7123V33.1278C9.01392 30.3342 7.65047 26.7333 7.65133 23.0039C7.64909 22.4402 7.68237 21.8768 7.751 21.3173C7.78757 21.0644 7.77323 20.8068 7.70882 20.5596C7.6444 20.3124 7.53122 20.0806 7.37593 19.8777C7.22063 19.6749 7.02636 19.5052 6.80452 19.3785C6.58268 19.2518 6.33775 19.1707 6.08413 19.1401C5.83052 19.1094 5.57333 19.1298 5.3277 19.1999C5.08206 19.2701 4.85292 19.3886 4.65376 19.5486C4.45459 19.7086 4.28942 19.9068 4.16795 20.1315C4.04648 20.3563 3.97116 20.603 3.94642 20.8573C3.85901 21.5695 3.81612 22.2864 3.818 23.0039C3.81993 27.5776 5.46384 31.9985 8.45058 35.4623H5.73467C5.22633 35.4623 4.73882 35.6642 4.37938 36.0236C4.01993 36.3831 3.818 36.8706 3.818 37.3789C3.818 37.8873 4.01993 38.3748 4.37938 38.7342C4.73882 39.0937 5.22633 39.2956 5.73467 39.2956H13.4013C13.7011 39.292 13.9957 39.2167 14.2605 39.076C14.5252 38.9353 14.7525 38.7333 14.9232 38.4868L14.9941 38.4043C15.0075 38.3852 15.0075 38.3622 15.019 38.343C15.1095 38.1885 15.1779 38.022 15.2222 37.8485C15.2505 37.7506 15.271 37.6507 15.2835 37.5495C15.2892 37.492 15.318 37.4403 15.318 37.3789V29.7123C15.318 29.2039 15.1161 28.7164 14.7566 28.357C14.3972 27.9975 13.9097 27.7956 13.4013 27.7956ZM16.2763 11.5039H12.8589C15.653 9.03275 19.2546 7.66926 22.9847 7.6706C23.5485 7.66899 24.1118 7.70291 24.6713 7.77218C25.1764 7.83318 25.6849 7.69106 26.0852 7.37709C26.4854 7.06311 26.7445 6.603 26.8055 6.09797C26.8665 5.59294 26.7244 5.08437 26.4104 4.68413C26.0965 4.28389 25.6364 4.02476 25.1313 3.96376C24.4191 3.87699 23.7022 3.83475 22.9847 3.83726C18.411 3.8392 13.9901 5.48311 10.5263 8.46985V5.75393C10.5263 5.2456 10.3244 4.75809 9.96495 4.39864C9.60551 4.0392 9.118 3.83726 8.60967 3.83726C8.10133 3.83726 7.61382 4.0392 7.25438 4.39864C6.89493 4.75809 6.693 5.2456 6.693 5.75393V13.4206C6.70544 13.5474 6.73048 13.6726 6.76775 13.7943C6.81537 14.0304 6.90705 14.2554 7.038 14.4575L7.061 14.4901C7.18827 14.6733 7.34653 14.8328 7.52867 14.9616C7.54975 14.9769 7.56125 14.9999 7.58233 15.0153C7.60917 15.0344 7.63983 15.0402 7.66858 15.0555C7.77795 15.1205 7.89352 15.1744 8.01358 15.2165C8.17506 15.2725 8.3433 15.3067 8.51383 15.3181C8.54833 15.3181 8.57517 15.3373 8.60967 15.3373H16.2763C16.7847 15.3373 17.2722 15.1353 17.6316 14.7759C17.9911 14.4164 18.193 13.9289 18.193 13.4206C18.193 12.9123 17.9911 12.4248 17.6316 12.0653C17.2722 11.7059 16.7847 11.5039 16.2763 11.5039ZM39.1997 32.2116C39.1518 31.9762 39.0601 31.7519 38.9294 31.5503L38.9083 31.5178C38.7805 31.3344 38.6216 31.1748 38.4388 31.0463C38.4177 31.0309 38.4081 31.0079 38.3851 30.9926C38.3659 30.9792 38.341 30.9792 38.3199 30.9658C38.0759 30.8321 37.8096 30.7437 37.5341 30.7051C37.4728 30.6993 37.421 30.6706 37.3597 30.6706H29.693C29.1847 30.6706 28.6972 30.8725 28.3377 31.232C27.9783 31.5914 27.7763 32.0789 27.7763 32.5873C27.7763 33.0956 27.9783 33.5831 28.3377 33.9426C28.6972 34.302 29.1847 34.5039 29.693 34.5039H33.1085C30.315 36.9747 26.7141 38.3381 22.9847 38.3373C22.4208 38.3382 21.8575 38.3037 21.298 38.2338C20.793 38.1728 20.2844 38.3149 19.8842 38.6289C19.4839 38.9428 19.2248 39.4029 19.1638 39.908C19.1028 40.413 19.2449 40.9216 19.5589 41.3218C19.8729 41.7221 20.333 41.9812 20.838 42.0422C21.5502 42.1296 22.2671 42.1725 22.9847 42.1706C27.5583 42.1687 31.9792 40.5247 35.443 37.538V40.2539C35.443 40.7623 35.6449 41.2498 36.0044 41.6092C36.3638 41.9687 36.8513 42.1706 37.3597 42.1706C37.868 42.1706 38.3555 41.9687 38.715 41.6092C39.0744 41.2498 39.2763 40.7623 39.2763 40.2539V32.5873C39.2633 32.4604 39.2376 32.3333 39.1997 32.2116ZM40.2347 10.5456C40.743 10.5456 41.2305 10.3437 41.59 9.98422C41.9494 9.62477 42.1513 9.13726 42.1513 8.62893C42.1513 8.1206 41.9494 7.63309 41.59 7.27364C41.2305 6.9142 40.743 6.71226 40.2347 6.71226H32.568C32.4432 6.72508 32.3199 6.75011 32.2 6.78701L32.1866 6.78893C31.9546 6.83733 31.7337 6.92831 31.5349 7.05726L31.4966 7.08218C31.3141 7.20962 31.1552 7.36787 31.027 7.54985C31.0117 7.56901 30.9887 7.58051 30.9733 7.6016C30.9599 7.62076 30.9599 7.64568 30.9465 7.66676C30.8121 7.91255 30.7238 8.18082 30.6858 8.45835C30.6801 8.51585 30.6513 8.5676 30.6513 8.62893V16.2956C30.6513 16.8039 30.8533 17.2914 31.2127 17.6509C31.5722 18.0103 32.0597 18.2123 32.568 18.2123C33.0763 18.2123 33.5638 18.0103 33.9233 17.6509C34.2827 17.2914 34.4847 16.8039 34.4847 16.2956V12.8782C36.9543 15.6731 38.3176 19.2742 38.318 23.0039C38.3196 23.5677 38.2857 24.1311 38.2164 24.6906C38.1553 25.1951 38.297 25.7032 38.6104 26.1033C38.9238 26.5033 39.3833 26.7625 39.8878 26.8238C39.9654 26.8331 40.0434 26.8376 40.1216 26.8373C40.5895 26.8364 41.0409 26.6645 41.3908 26.3538C41.7407 26.0431 41.9649 25.6151 42.021 25.1506C42.1091 24.4384 42.1526 23.7215 42.1513 23.0039C42.1494 18.4303 40.5055 14.0093 37.5188 10.5456H40.2347Z" fill="white"/>
</svg>
