<svg width="46" height="46" viewBox="0 0 46 46" fill="none" xmlns="http://www.w3.org/2000/svg">
<path d="M5.75 2.875H2.875V40.25C2.875 41.0125 3.1779 41.7438 3.71707 42.2829C4.25623 42.8221 4.9875 43.125 5.75 43.125H43.125V40.25H5.75V2.875Z" fill="white"/>
<path d="M43.125 12.9375H33.0625V15.8125H38.2231L27.3125 26.7231L21.1456 20.5419C21.012 20.4071 20.853 20.3002 20.6778 20.2272C20.5027 20.1542 20.3148 20.1167 20.125 20.1167C19.9352 20.1167 19.7473 20.1542 19.5722 20.2272C19.397 20.3002 19.238 20.4071 19.1044 20.5419L8.625 31.0356L10.6519 33.0625L20.125 23.5894L26.2919 29.7706C26.4255 29.9054 26.5845 30.0123 26.7597 30.0853C26.9348 30.1583 27.1227 30.1958 27.3125 30.1958C27.5023 30.1958 27.6902 30.1583 27.8653 30.0853C28.0405 30.0123 28.1995 29.9054 28.3331 29.7706L40.25 17.8394V23H43.125V12.9375Z" fill="white"/>
</svg>
