<svg width="46" height="46" viewBox="0 0 46 46" fill="none" xmlns="http://www.w3.org/2000/svg">
<path d="M37.0246 31.4409C35.9002 30.3156 34.5864 29.3972 33.1433 28.7276C35.1783 27.079 36.4766 24.5634 36.4766 21.7423C36.4766 16.7649 32.3258 12.6815 27.3484 12.7579C22.4475 12.8343 18.4988 16.8278 18.4988 21.7423C18.4988 24.5634 19.8016 27.079 21.832 28.7276C20.3887 29.3967 19.0748 30.3152 17.9508 31.4409C15.498 33.8981 14.1055 37.1415 14.0156 40.6005C14.0144 40.6484 14.0228 40.6961 14.0403 40.7408C14.0579 40.7854 14.0842 40.8261 14.1176 40.8604C14.1511 40.8947 14.1912 40.922 14.2354 40.9406C14.2796 40.9593 14.327 40.9688 14.375 40.9688H16.8906C17.0838 40.9688 17.2455 40.8161 17.25 40.6229C17.3353 38.0175 18.391 35.5782 20.2463 33.7274C21.1957 32.773 22.3249 32.0163 23.5687 31.5013C24.8124 30.9862 26.146 30.7229 27.4922 30.7266C30.2279 30.7266 32.8019 31.7913 34.7381 33.7274C36.5889 35.5782 37.6445 38.0175 37.7344 40.6229C37.7389 40.8161 37.9006 40.9688 38.0937 40.9688H40.6094C40.6573 40.9688 40.7048 40.9593 40.749 40.9406C40.7932 40.922 40.8332 40.8947 40.8667 40.8604C40.9002 40.8261 40.9265 40.7854 40.944 40.7408C40.9615 40.6961 40.9699 40.6484 40.9687 40.6005C40.8789 37.1415 39.4863 33.8981 37.0246 31.4409ZM27.4922 27.4923C25.9559 27.4923 24.5094 26.8948 23.4267 25.8077C22.8834 25.2687 22.4543 24.6257 22.1648 23.9172C21.8754 23.2087 21.7317 22.4491 21.7422 21.6839C21.7557 20.2104 22.3441 18.7864 23.3728 17.7307C24.451 16.6257 25.893 16.0102 27.4338 15.9923C28.9566 15.9788 30.4346 16.5718 31.5217 17.6364C32.6357 18.728 33.2467 20.188 33.2467 21.7423C33.2467 23.2786 32.6492 24.7206 31.5621 25.8077C31.0288 26.3436 30.3944 26.7684 29.6958 27.0576C28.9972 27.3467 28.2482 27.4945 27.4922 27.4923ZM16.2392 22.9282C16.1988 22.5374 16.1764 22.1421 16.1764 21.7423C16.1764 21.028 16.2437 20.3317 16.3695 19.6534C16.401 19.4917 16.3156 19.3255 16.1674 19.2581C15.5564 18.9841 14.9949 18.6067 14.5098 18.1305C13.9381 17.5762 13.4882 16.9089 13.1889 16.171C12.8896 15.4331 12.7473 14.6409 12.7713 13.845C12.8117 12.403 13.3912 11.0329 14.4019 9.99969C15.5115 8.86316 17.0029 8.24324 18.5887 8.26121C20.0217 8.27469 21.4053 8.82723 22.4519 9.80652C22.8068 10.1389 23.1123 10.5073 23.3684 10.9026C23.4582 11.0419 23.6334 11.1003 23.7861 11.0464C24.5767 10.7723 25.4123 10.5792 26.2703 10.4893C26.5219 10.4624 26.6656 10.1929 26.5533 9.96824C25.0933 7.07976 22.1105 5.08523 18.6605 5.03133C13.6787 4.95496 9.52792 9.03836 9.52792 14.0112C9.52792 16.8323 10.8262 19.3479 12.8611 20.9966C11.4326 21.6569 10.1164 22.5688 8.97538 23.7098C6.51366 26.1671 5.12108 29.4104 5.03124 32.8739C5.03004 32.9218 5.03845 32.9695 5.05597 33.0142C5.0735 33.0588 5.09978 33.0995 5.13327 33.1339C5.16676 33.1682 5.20678 33.1955 5.25098 33.2141C5.29518 33.2327 5.34266 33.2423 5.39062 33.2423H7.91073C8.1039 33.2423 8.26562 33.0895 8.27011 32.8964C8.35546 30.2909 9.41112 27.8516 11.2664 26.0009C12.5871 24.6802 14.2043 23.7637 15.9697 23.319C16.1449 23.2741 16.2617 23.1079 16.2392 22.9282Z" fill="white"/>
</svg>
