<svg width="42" height="42" viewBox="0 0 42 42" fill="none" xmlns="http://www.w3.org/2000/svg">
<g clip-path="url(#clip0_17_103)">
<path fill-rule="evenodd" clip-rule="evenodd" d="M34.9091 0C32.0195 0 29.576 1.9887 28.87 4.65864L28.0925 4.29744C27.9539 4.23297 27.8028 4.19956 27.6499 4.19956C27.4969 4.19956 27.3458 4.23297 27.2072 4.29744L14.3497 10.2703L1.49226 4.29786C1.33227 4.22356 1.15615 4.19077 0.980141 4.2025C0.804135 4.21424 0.633923 4.27013 0.485217 4.36501C0.336512 4.45989 0.214107 4.59071 0.129303 4.74538C0.0444991 4.90006 2.96236e-05 5.0736 2.83187e-08 5.25V34.7705C-4.64575e-05 34.9707 0.0571386 35.1668 0.164815 35.3355C0.272491 35.5043 0.426171 35.6388 0.60774 35.7231L13.9075 41.9009C14.0461 41.9654 14.1972 41.9988 14.3501 41.9988C14.5031 41.9988 14.6541 41.9654 14.7928 41.9009L27.6503 35.9285L40.5077 41.9009C41.2037 42.2239 42 41.7161 42 40.9492V11.4286C42 11.2284 41.9429 11.0324 41.8352 10.8636C41.7275 10.6949 41.5738 10.5604 41.3923 10.4761L40.0357 9.84522L40.4603 9.12198C40.5569 8.94684 40.6337 8.76036 40.6997 8.56968C41.0032 7.82824 41.1596 7.03481 41.16 6.23364C41.16 2.8077 38.3452 0 34.9091 0ZM34.9091 2.92026C36.7592 2.92026 38.2305 4.38858 38.2305 6.23364C38.2305 8.07828 36.7592 9.54534 34.9091 9.54534C33.059 9.54534 31.5878 8.07828 31.5878 6.23364C31.5878 4.38858 33.059 2.92026 34.9091 2.92026ZM28.1194 6.6255L28.6978 6.89472C28.8101 7.94432 29.1897 8.94758 29.8003 9.80868L34.1464 17.3225C34.7554 18.118 35.1603 17.9668 35.6664 17.2805L38.9663 11.6638L39.9 12.0981V39.3036L28.2752 33.9037L28.1803 17.2397C28.3517 17.2767 28.5226 17.3124 28.6944 17.3531L29.0808 15.7189C28.7785 15.6474 28.4749 15.5812 28.1702 15.5203L28.1194 6.6255ZM26.8603 6.77418L26.9086 15.3153C26.4748 15.2559 26.0385 15.2166 25.6011 15.1973L25.5389 16.8756C25.9959 16.8924 26.4566 16.942 26.9186 17.0092L27.0152 33.9074L14.9713 39.5031L14.8163 12.3694L26.8603 6.77418ZM2.1 6.89556L13.5555 12.217L13.7113 39.4947L2.1 34.1002V6.89556ZM23.7481 15.3119C23.1697 15.4157 22.5779 15.6009 22.0269 15.9214C21.3677 16.303 20.8256 16.8579 20.4595 17.5258L21.9303 18.3372C22.1494 17.9382 22.4725 17.606 22.8652 17.3758L22.8677 17.3741L22.8703 17.3725C23.2092 17.1751 23.6128 17.0423 24.045 16.9651L23.7481 15.3119ZM30.7478 16.165L30.2719 17.7752C31.3232 18.086 32.3644 18.443 33.3997 18.8294L33.9872 17.2553C32.9238 16.8588 31.8452 16.4892 30.7478 16.165ZM19.8269 19.3553L19.8143 19.4216L19.8131 19.4275C19.6035 20.6165 19.6258 21.7867 19.6728 22.8988L21.3511 22.8274C21.3053 21.7484 21.2957 20.7043 21.4675 19.7245L21.4775 19.672L19.8269 19.3553ZM21.4511 24.4835L19.7753 24.5969C19.8509 25.7179 19.9315 26.8166 19.9286 27.8939L21.6086 27.8981C21.6119 26.7347 21.5267 25.5973 21.4511 24.4835ZM19.845 29.4773C19.7988 29.8775 19.7299 30.2669 19.6291 30.6407L19.6283 30.6428L19.6274 30.6461C19.4804 31.2068 19.2331 31.726 18.8878 32.1325L20.1676 33.2203C20.7085 32.584 21.0517 31.8352 21.2512 31.0775L21.252 31.075C21.378 30.6062 21.4599 30.1342 21.5137 29.668L19.845 29.4773ZM5.66244 31.1144L4.90812 32.6155C5.94972 33.1393 7.02702 33.5723 8.11188 33.9469L8.65998 32.3589C7.62888 32.0032 6.62214 31.5966 5.66244 31.1144ZM10.2136 32.8419L9.76668 34.4614C10.878 34.7684 12.0204 35.0125 13.188 35.1439L13.3753 33.4744C12.3165 33.3556 11.2606 33.1313 10.2136 32.8419ZM17.8328 32.9603C16.9961 33.3887 15.986 33.5471 14.9474 33.5597L14.9684 35.2397C16.1587 35.2254 17.4313 35.0532 18.598 34.4555L17.8328 32.9603Z" fill="white"/>
</g>
<defs>
<clipPath id="clip0_17_103">
<rect width="42" height="42" fill="white"/>
</clipPath>
</defs>
</svg>
