<svg width="46" height="46" viewBox="0 0 46 46" fill="none" xmlns="http://www.w3.org/2000/svg">
<path d="M37.375 8.625C35.8087 10.1233 33.9459 11.2769 31.9067 12.0117C29.7562 12.3912 23.805 9.63125 20.8725 12.4487C20.3838 12.9375 19.78 13.4263 19.1475 13.915C17.7675 13.3113 15.64 12.3912 14.0875 11.5C12.535 10.6087 8.625 8.625 8.625 8.625L0 18.6875C0 18.6875 2.1275 21.5625 3.45 23.46C4.3125 24.725 5.37625 26.6513 6.06625 27.945L5.08875 29.095C4.85633 29.5604 4.77304 30.0862 4.8502 30.6006C4.92737 31.1151 5.16126 31.5933 5.52 31.97C5.93522 32.2831 6.44133 32.4519 6.96134 32.4509C7.48135 32.4498 7.98679 32.279 8.40075 31.9643C8.24704 32.1442 8.13071 32.353 8.05855 32.5784C7.98638 32.8038 7.95983 33.0413 7.98044 33.2771C8.00105 33.5129 8.0684 33.7422 8.17857 33.9517C8.28874 34.1611 8.43953 34.3465 8.62213 34.4971C9.06173 34.7518 9.56098 34.8854 10.069 34.8844C10.5771 34.8834 11.0758 34.7478 11.5144 34.4914C11.1859 34.9008 11.0062 35.4096 11.0046 35.9346C11.003 36.4595 11.1797 36.9694 11.5057 37.3807C11.9295 37.5279 12.3815 37.5749 12.8265 37.518C13.2714 37.4612 13.6971 37.302 14.0703 37.053C13.8835 37.493 13.8349 37.9794 13.9309 38.4477C14.0269 38.916 14.263 39.344 14.6079 39.675C15.0945 39.8892 15.6272 39.9772 16.1569 39.931C16.6865 39.8848 17.196 39.7057 17.6381 39.4105L19.1216 38.0679C20.4786 39.4191 22.3503 40.2557 24.4174 40.2557L24.5928 40.2529C25.2741 40.195 25.9268 39.9528 26.4809 39.5522C27.035 39.1515 27.4696 38.6076 27.738 37.9788C28.1577 38.1397 28.635 38.249 29.141 38.249C29.8195 38.249 30.4491 38.0535 30.981 37.7171C32.6629 36.6045 32.2604 35.742 32.2604 35.742C32.8584 35.9994 33.5227 36.0605 34.1577 35.9163C34.7926 35.7722 35.3655 35.4303 35.7938 34.9399C36.2388 34.4846 36.5194 33.894 36.5913 33.2614C36.6631 32.6288 36.5221 31.9902 36.1905 31.4467C36.2089 31.457 36.2298 31.462 36.2509 31.4611C37.4613 31.4611 38.5135 30.7941 39.0626 29.8109C39.3339 29.1122 39.4258 28.3567 39.3298 27.6135C39.2339 26.8702 38.9533 26.1628 38.5135 25.5559L38.5221 25.5702C40.8796 25.1103 40.7934 23.9315 41.9434 22.2065C43.0309 20.7975 44.386 19.6172 45.931 18.7335L37.375 8.625ZM37.2313 28.9225C35.9662 30.1875 34.9888 29.6412 32.8325 28.0025C30.6763 26.3637 26.3925 23.2875 26.3925 23.2875C26.5679 24.1644 26.9733 24.9262 27.5454 25.5329C28.4625 26.565 31.1938 28.9225 32.4875 30.13C33.2925 30.8775 35.3625 32.3725 34.155 33.5225C32.9475 34.6725 31.9987 33.5225 30.015 31.9125C28.0312 30.3025 23.6038 26.335 23.6038 26.335C23.5799 26.7153 23.6367 27.0963 23.7705 27.453C23.9043 27.8098 24.112 28.1342 24.38 28.405C24.8687 28.98 27.6 31.625 28.75 32.8325C29.9 34.04 30.9062 34.7588 29.9287 35.7075C28.9513 36.6562 26.9675 35.1613 25.875 34.04C24.1788 32.4013 20.815 29.3538 20.815 29.3538L20.8121 29.5061C20.8121 30.3226 21.0939 31.0701 21.5682 31.6624C22.3962 32.7491 24.0062 34.1579 24.9837 35.2504C25.9612 36.3429 26.5362 37.2629 24.9837 38.1254C23.4312 38.9879 21.1313 36.8604 20.125 35.8254V35.8196C20.1281 35.5351 20.0257 35.2596 19.8375 35.0462C19.4929 34.7288 19.0687 34.5108 18.6099 34.4156C18.1512 34.3204 17.6752 34.3516 17.2327 34.5057C17.4143 34.3426 17.5598 34.1433 17.66 33.9207C17.7601 33.6981 17.8127 33.457 17.8143 33.2129C17.8159 32.9688 17.7666 32.7271 17.6694 32.5032C17.5722 32.2792 17.4294 32.0781 17.25 31.9125C16.8726 31.6266 16.412 31.4721 15.9385 31.4726C15.465 31.4731 15.0048 31.6286 14.628 31.9154C14.8185 31.7334 14.9656 31.5108 15.0583 31.2642C15.151 31.0176 15.1869 30.7533 15.1634 30.4909C15.1399 30.2285 15.0576 29.9748 14.9226 29.7485C14.7876 29.5223 14.6034 29.3294 14.3836 29.1841C13.8689 28.8607 13.265 28.7088 12.6586 28.7501C12.0522 28.7914 11.4744 29.0239 11.0084 29.4141C11.3199 29.0366 11.4734 28.5533 11.437 28.0653C11.4006 27.5772 11.1769 27.1221 10.8129 26.795C10.3595 26.3755 9.78301 26.1132 9.16888 26.0469C8.55475 25.9806 7.9356 26.1139 7.40313 26.427L5.49125 23.1984C4.16875 21.0996 2.61625 18.9146 2.61625 18.9146L9.17125 10.9509C9.17125 10.9509 11.5 12.3884 13.4263 13.4809C14.375 14.0271 16.0138 14.7459 17.25 15.3209C15.295 16.7871 13.6562 18.1959 14.145 19.1734C15.0153 19.8002 16.0565 20.146 17.1289 20.1645C18.2013 20.183 19.2537 19.8733 20.1451 19.2769C21.2881 18.5149 22.6326 18.1115 24.0063 18.1182C25.0039 18.1182 25.9526 18.3253 26.8123 18.7019C28.405 19.7771 31.3375 22.4221 34.0112 24.0896C37.375 26.5334 38.0363 28.1146 37.2313 28.9196V28.9225Z" fill="white"/>
</svg>
