<svg width="46" height="46" viewBox="0 0 46 46" fill="none" xmlns="http://www.w3.org/2000/svg">
<path d="M40.1733 24.5292C40.1925 24.2417 40.25 23.9542 40.25 23.6667V24.625L40.1733 24.5292ZM21.0833 23.6667C21.0833 25.0275 21.3708 26.3308 21.8883 27.5H11.5V29.4167C11.5 30.4708 10.6375 31.3333 9.58333 31.3333H7.66667C6.6125 31.3333 5.75 30.4708 5.75 29.4167V14.0833L9.73667 2.58332C10.12 1.47166 11.1933 0.666656 12.4583 0.666656H33.5417C34.8067 0.666656 35.88 1.47166 36.2633 2.58332L40.25 14.0833V23.6667C40.25 18.3767 35.9567 14.0833 30.6667 14.0833C25.3767 14.0833 21.0833 18.3767 21.0833 23.6667ZM15.3333 18.875C15.3333 17.2842 14.0492 16 12.4583 16C10.8675 16 9.58333 17.2842 9.58333 18.875C9.58333 20.4658 10.8675 21.75 12.4583 21.75C14.0492 21.75 15.3333 20.4658 15.3333 18.875ZM36.4167 12.1667L33.5417 3.54166H12.4583L9.58333 12.1667H36.4167ZM43.8342 33.6142L35.9567 25.7367C36.7425 23.7433 36.3017 21.405 34.6533 19.7758C32.9283 18.0317 30.3408 17.6867 28.2517 18.645L31.97 22.3633L29.3825 24.97L25.5683 21.2325C24.5333 23.3217 25.0125 25.9092 26.6992 27.6533C27.4604 28.4299 28.432 28.9669 29.4944 29.1985C30.5569 29.4301 31.6639 29.346 32.6792 28.9567L40.5567 36.815C40.9017 37.1792 41.4192 37.1792 41.7642 36.815L43.7575 34.8408C44.1792 34.4958 44.1792 33.8825 43.8342 33.6142Z" fill="white"/>
</svg>
