<svg width="46" height="46" viewBox="0 0 46 46" fill="none" xmlns="http://www.w3.org/2000/svg">
<path d="M28.75 23H31.625V31.1458L37.1066 34.385L35.6691 36.7233L28.75 32.5833V23ZM30.6666 17.25C31.9891 17.25 33.2925 17.4417 34.5 17.8058V9.00834L28.75 11.2317V17.3842C29.3825 17.25 30.015 17.25 30.6666 17.25ZM44.0833 30.6667C44.0833 34.225 42.6698 37.6376 40.1537 40.1537C37.6375 42.6698 34.225 44.0833 30.6666 44.0833C24.9166 44.0833 19.9333 40.4033 18.055 35.2667L15.3333 34.3083L5.09831 38.2758L4.79165 38.3333C4.53748 38.3333 4.29372 38.2324 4.114 38.0526C3.93428 37.8729 3.83331 37.6292 3.83331 37.375V8.395C3.83331 7.95417 4.12081 7.60917 4.52331 7.475L15.3333 3.83334L26.8333 7.85834L37.0683 3.89084L37.375 3.83334C37.6291 3.83334 37.8729 3.9343 38.0526 4.11403C38.2323 4.29375 38.3333 4.5375 38.3333 4.79167V19.6458C41.8025 22.0417 44.0833 26.105 44.0833 30.6667ZM17.25 30.6667C17.25 25.3192 20.3741 20.7 24.9166 18.5342V11.2508L17.25 8.5675V30.9158V30.6667ZM30.6666 21.0833C28.125 21.0833 25.6874 22.093 23.8902 23.8902C22.093 25.6875 21.0833 28.125 21.0833 30.6667C21.0833 33.2083 22.093 35.6459 23.8902 37.4431C25.6874 39.2403 28.125 40.25 30.6666 40.25C33.2083 40.25 35.6459 39.2403 37.4431 37.4431C39.2403 35.6459 40.25 33.2083 40.25 30.6667C40.25 28.125 39.2403 25.6875 37.4431 23.8902C35.6459 22.093 33.2083 21.0833 30.6666 21.0833ZM7.66665 10.465V33.1775L13.4166 30.9542V8.52917L7.66665 10.465Z" fill="white"/>
</svg>
