<svg width="46" height="46" viewBox="0 0 46 46" fill="none" xmlns="http://www.w3.org/2000/svg">
<path d="M37.3037 4.46885C38.8056 5.64645 39.8406 7.54855 40.2638 9.54035L40.4133 9.60015L45.1168 11.7759C45.3795 11.8969 45.6022 12.0904 45.7587 12.3337C45.9152 12.5769 45.9989 12.8598 46 13.149V41.5931C45.9983 41.8294 45.9419 42.0621 45.8352 42.2729C45.7285 42.4837 45.5744 42.667 45.385 42.8083C45.1956 42.9495 44.976 43.045 44.7435 43.0872C44.5111 43.1293 44.272 43.1171 44.045 43.0513L31.0063 39.3713L15.5043 43.6447C15.2247 43.7221 14.9289 43.7189 14.651 43.6355L1.0902 39.599C0.776757 39.507 0.501376 39.3163 0.304969 39.0552C0.108562 38.7942 0.00160922 38.4767 0 38.15L0 9.19535C0 8.18335 0.9844 7.45655 1.9665 7.74175L15.0811 11.562L21.7465 9.52195C21.8385 9.49435 21.932 9.47518 22.0271 9.46445C22.2847 7.95565 23.0046 6.50665 24.2121 5.09445C25.645 3.41545 28.1589 2.43105 30.6084 2.31375C33.1499 2.19185 35.0911 2.73465 37.3014 4.46655M3.0659 11.2262V37.0207L14.2669 40.3534V14.4853L3.0659 11.2262ZM21.9466 12.6384L17.3328 14.0483V39.99L28.9823 36.7838V29.2053C28.9823 28.3681 29.67 27.6896 30.5164 27.6896C31.3628 27.6896 32.0482 28.3681 32.0482 29.2076V36.5147L42.9341 39.5852V14.1127L40.3581 12.9167C40.3152 13.1697 40.2592 13.4174 40.1902 13.6596C39.6919 15.4239 38.8527 17.0734 37.72 18.5149L32.0229 25.6288C31.8729 25.8159 31.6813 25.9654 31.4634 26.0653C31.2455 26.1653 31.0072 26.2131 30.7676 26.2048C30.528 26.1966 30.2936 26.1325 30.0831 26.0178C29.8726 25.903 29.6918 25.7407 29.555 25.5437L24.2305 17.8318C23.3504 16.6067 22.7363 15.5058 22.3882 14.529C22.1694 13.9178 22.0212 13.2834 21.9466 12.6384ZM30.7556 5.34515C29.0858 5.42565 27.37 6.09725 26.5535 7.05175C25.5714 8.20175 25.0884 9.27815 24.9918 10.3683C24.8768 11.6816 24.955 12.6085 25.2816 13.5262C25.5231 14.2047 26.0038 15.0649 26.7467 16.1022L30.912 22.1328L35.305 16.6473C36.1919 15.5151 36.8489 14.2205 37.2393 12.8362C37.7913 10.9042 36.9587 8.06605 35.3993 6.84705C33.8008 5.59355 32.5933 5.25545 30.7579 5.34515M31.0753 6.94825C33.6145 6.94825 35.6753 8.98375 35.6753 11.4953C35.6674 12.708 35.1785 13.868 34.3161 14.7206C33.4536 15.5731 32.288 16.0486 31.0753 16.0424C28.5361 16.0424 26.4753 14.0069 26.4753 11.4953C26.4753 8.98375 28.5361 6.94825 31.0753 6.94825ZM31.0753 9.97965C30.875 9.97843 30.6765 10.0167 30.491 10.0922C30.3056 10.1677 30.1368 10.279 29.9943 10.4198C29.8519 10.5605 29.7385 10.7279 29.6608 10.9125C29.583 11.097 29.5424 11.2951 29.5412 11.4953C29.5412 12.3325 30.2289 13.011 31.0753 13.011C31.2756 13.012 31.474 12.9734 31.6594 12.8976C31.8447 12.8218 32.0134 12.7103 32.1556 12.5693C32.2978 12.4283 32.4109 12.2607 32.4884 12.0761C32.5659 11.8914 32.6062 11.6933 32.6071 11.493C32.6041 11.0894 32.4411 10.7035 32.154 10.4198C31.8668 10.1361 31.4789 9.97781 31.0753 9.97965Z" fill="white"/>
</svg>
