<svg width="46" height="46" viewBox="0 0 46 46" fill="none" xmlns="http://www.w3.org/2000/svg">
<path d="M38.8125 15.8125H28.75V5.75C28.75 4.60625 28.2956 3.50935 27.4869 2.7006C26.6781 1.89185 25.5812 1.4375 24.4375 1.4375H7.1875C6.04375 1.4375 4.94685 1.89185 4.1381 2.7006C3.32935 3.50935 2.875 4.60625 2.875 5.75V43.125C2.875 43.5062 3.02645 43.8719 3.29603 44.1415C3.56562 44.411 3.93125 44.5625 4.3125 44.5625H13.6562C13.8469 44.5625 14.0297 44.4868 14.1645 44.352C14.2993 44.2172 14.375 44.0344 14.375 43.8438V37.4154C14.375 36.6419 14.9698 35.9779 15.7433 35.9393C15.9377 35.9299 16.1319 35.9601 16.3143 36.028C16.4966 36.096 16.6633 36.2002 16.8042 36.3344C16.945 36.4687 17.0572 36.6301 17.1338 36.809C17.2105 36.9879 17.25 37.1804 17.25 37.375V43.8438C17.25 44.0344 17.3257 44.2172 17.4605 44.352C17.5953 44.4868 17.7781 44.5625 17.9688 44.5625H41.6875C42.0687 44.5625 42.4344 44.411 42.704 44.1415C42.9735 43.8719 43.125 43.5062 43.125 43.125V20.125C43.125 18.9813 42.6707 17.8844 41.8619 17.0756C41.0531 16.2669 39.9562 15.8125 38.8125 15.8125ZM8.81188 38.8008C8.51416 38.8398 8.21172 38.7845 7.94702 38.6428C7.68231 38.5011 7.46862 38.28 7.33593 38.0107C7.20325 37.7414 7.15824 37.4372 7.20721 37.141C7.25618 36.8448 7.39668 36.5713 7.60899 36.359C7.8213 36.1467 8.09476 36.0062 8.39099 35.9572C8.68723 35.9082 8.99135 35.9533 9.2607 36.0859C9.53004 36.2186 9.75108 36.4323 9.89279 36.697C10.0345 36.9617 10.0898 37.2642 10.0508 37.5619C10.0097 37.8761 9.86598 38.1679 9.64192 38.3919C9.41787 38.616 9.12606 38.7597 8.81188 38.8008ZM8.81188 31.6133C8.51416 31.6523 8.21172 31.597 7.94702 31.4553C7.68231 31.3136 7.46862 31.0925 7.33593 30.8232C7.20325 30.5539 7.15824 30.2497 7.20721 29.9535C7.25618 29.6573 7.39668 29.3838 7.60899 29.1715C7.8213 28.9592 8.09476 28.8187 8.39099 28.7697C8.68723 28.7207 8.99135 28.7658 9.2607 28.8984C9.53004 29.0311 9.75108 29.2448 9.89279 29.5095C10.0345 29.7742 10.0898 30.0767 10.0508 30.3744C10.0097 30.6886 9.86598 30.9804 9.64192 31.2044C9.41787 31.4285 9.12606 31.5722 8.81188 31.6133ZM8.81188 24.4258C8.51416 24.4648 8.21172 24.4095 7.94702 24.2678C7.68231 24.1261 7.46862 23.905 7.33593 23.6357C7.20325 23.3664 7.15824 23.0622 7.20721 22.766C7.25618 22.4698 7.39668 22.1963 7.60899 21.984C7.8213 21.7717 8.09476 21.6312 8.39099 21.5822C8.68723 21.5332 8.99135 21.5783 9.2607 21.7109C9.53004 21.8436 9.75108 22.0573 9.89279 22.322C10.0345 22.5867 10.0898 22.8892 10.0508 23.1869C10.0097 23.5011 9.86598 23.7929 9.64192 24.0169C9.41787 24.241 9.12606 24.3847 8.81188 24.4258ZM8.81188 17.2383C8.51416 17.2773 8.21172 17.222 7.94702 17.0803C7.68231 16.9386 7.46862 16.7175 7.33593 16.4482C7.20325 16.1789 7.15824 15.8747 7.20721 15.5785C7.25618 15.2823 7.39668 15.0088 7.60899 14.7965C7.8213 14.5842 8.09476 14.4437 8.39099 14.3947C8.68723 14.3457 8.99135 14.3908 9.2607 14.5234C9.53004 14.6561 9.75108 14.8698 9.89279 15.1345C10.0345 15.3992 10.0898 15.7017 10.0508 15.9994C10.0097 16.3136 9.86598 16.6054 9.64192 16.8294C9.41787 17.0535 9.12606 17.1972 8.81188 17.2383ZM8.81188 10.0508C8.51416 10.0898 8.21172 10.0345 7.94702 9.89279C7.68231 9.75108 7.46862 9.53004 7.33593 9.2607C7.20325 8.99135 7.15824 8.68723 7.20721 8.39099C7.25618 8.09476 7.39668 7.8213 7.60899 7.60899C7.8213 7.39668 8.09476 7.25618 8.39099 7.20721C8.68723 7.15824 8.99135 7.20325 9.2607 7.33593C9.53004 7.46862 9.75108 7.68231 9.89279 7.94702C10.0345 8.21172 10.0898 8.51416 10.0508 8.81188C10.0097 9.12606 9.86598 9.41787 9.64192 9.64192C9.41787 9.86598 9.12606 10.0097 8.81188 10.0508ZM15.9994 31.6133C15.7017 31.6523 15.3992 31.597 15.1345 31.4553C14.8698 31.3136 14.6561 31.0925 14.5234 30.8232C14.3908 30.5539 14.3457 30.2497 14.3947 29.9535C14.4437 29.6573 14.5842 29.3838 14.7965 29.1715C15.0088 28.9592 15.2823 28.8187 15.5785 28.7697C15.8747 28.7207 16.1789 28.7658 16.4482 28.8984C16.7175 29.0311 16.9386 29.2448 17.0803 29.5095C17.222 29.7742 17.2773 30.0767 17.2383 30.3744C17.1972 30.6886 17.0535 30.9804 16.8294 31.2044C16.6054 31.4285 16.3136 31.5722 15.9994 31.6133ZM15.9994 24.4258C15.7017 24.4648 15.3992 24.4095 15.1345 24.2678C14.8698 24.1261 14.6561 23.905 14.5234 23.6357C14.3908 23.3664 14.3457 23.0622 14.3947 22.766C14.4437 22.4698 14.5842 22.1963 14.7965 21.984C15.0088 21.7717 15.2823 21.6312 15.5785 21.5822C15.8747 21.5332 16.1789 21.5783 16.4482 21.7109C16.7175 21.8436 16.9386 22.0573 17.0803 22.322C17.222 22.5867 17.2773 22.8892 17.2383 23.1869C17.1972 23.5011 17.0535 23.7929 16.8294 24.0169C16.6054 24.241 16.3136 24.3847 15.9994 24.4258ZM15.9994 17.2383C15.7017 17.2773 15.3992 17.222 15.1345 17.0803C14.8698 16.9386 14.6561 16.7175 14.5234 16.4482C14.3908 16.1789 14.3457 15.8747 14.3947 15.5785C14.4437 15.2823 14.5842 15.0088 14.7965 14.7965C15.0088 14.5842 15.2823 14.4437 15.5785 14.3947C15.8747 14.3457 16.1789 14.3908 16.4482 14.5234C16.7175 14.6561 16.9386 14.8698 17.0803 15.1345C17.222 15.3992 17.2773 15.7017 17.2383 15.9994C17.1972 16.3136 17.0535 16.6054 16.8294 16.8294C16.6054 17.0535 16.3136 17.1972 15.9994 17.2383ZM15.9994 10.0508C15.7017 10.0898 15.3992 10.0345 15.1345 9.89279C14.8698 9.75108 14.6561 9.53004 14.5234 9.2607C14.3908 8.99135 14.3457 8.68723 14.3947 8.39099C14.4437 8.09476 14.5842 7.8213 14.7965 7.60899C15.0088 7.39668 15.2823 7.25618 15.5785 7.20721C15.8747 7.15824 16.1789 7.20325 16.4482 7.33593C16.7175 7.46862 16.9386 7.68231 17.0803 7.94702C17.222 8.21172 17.2773 8.51416 17.2383 8.81188C17.1972 9.12606 17.0535 9.41787 16.8294 9.64192C16.6054 9.86598 16.3136 10.0097 15.9994 10.0508ZM23.1869 38.8008C22.8892 38.8398 22.5867 38.7845 22.322 38.6428C22.0573 38.5011 21.8436 38.28 21.7109 38.0107C21.5783 37.7414 21.5332 37.4372 21.5822 37.141C21.6312 36.8448 21.7717 36.5713 21.984 36.359C22.1963 36.1467 22.4698 36.0062 22.766 35.9572C23.0622 35.9082 23.3664 35.9533 23.6357 36.0859C23.905 36.2186 24.1261 36.4323 24.2678 36.697C24.4095 36.9617 24.4648 37.2642 24.4258 37.5619C24.3847 37.8761 24.241 38.1679 24.0169 38.3919C23.7929 38.616 23.5011 38.7597 23.1869 38.8008ZM23.1869 31.6133C22.8892 31.6523 22.5867 31.597 22.322 31.4553C22.0573 31.3136 21.8436 31.0925 21.7109 30.8232C21.5783 30.5539 21.5332 30.2497 21.5822 29.9535C21.6312 29.6573 21.7717 29.3838 21.984 29.1715C22.1963 28.9592 22.4698 28.8187 22.766 28.7697C23.0622 28.7207 23.3664 28.7658 23.6357 28.8984C23.905 29.0311 24.1261 29.2448 24.2678 29.5095C24.4095 29.7742 24.4648 30.0767 24.4258 30.3744C24.3847 30.6886 24.241 30.9804 24.0169 31.2044C23.7929 31.4285 23.5011 31.5722 23.1869 31.6133ZM23.1869 24.4258C22.8892 24.4648 22.5867 24.4095 22.322 24.2678C22.0573 24.1261 21.8436 23.905 21.7109 23.6357C21.5783 23.3664 21.5332 23.0622 21.5822 22.766C21.6312 22.4698 21.7717 22.1963 21.984 21.984C22.1963 21.7717 22.4698 21.6312 22.766 21.5822C23.0622 21.5332 23.3664 21.5783 23.6357 21.7109C23.905 21.8436 24.1261 22.0573 24.2678 22.322C24.4095 22.5867 24.4648 22.8892 24.4258 23.1869C24.3847 23.5011 24.241 23.7929 24.0169 24.0169C23.7929 24.241 23.5011 24.3847 23.1869 24.4258ZM23.1869 17.2383C22.8892 17.2773 22.5867 17.222 22.322 17.0803C22.0573 16.9386 21.8436 16.7175 21.7109 16.4482C21.5783 16.1789 21.5332 15.8747 21.5822 15.5785C21.6312 15.2823 21.7717 15.0088 21.984 14.7965C22.1963 14.5842 22.4698 14.4437 22.766 14.3947C23.0622 14.3457 23.3664 14.3908 23.6357 14.5234C23.905 14.6561 24.1261 14.8698 24.2678 15.1345C24.4095 15.3992 24.4648 15.7017 24.4258 15.9994C24.3847 16.3136 24.241 16.6054 24.0169 16.8294C23.7929 17.0535 23.5011 17.1972 23.1869 17.2383ZM23.1869 10.0508C22.8892 10.0898 22.5867 10.0345 22.322 9.89279C22.0573 9.75108 21.8436 9.53004 21.7109 9.2607C21.5783 8.99135 21.5332 8.68723 21.5822 8.39099C21.6312 8.09476 21.7717 7.8213 21.984 7.60899C22.1963 7.39668 22.4698 7.25618 22.766 7.20721C23.0622 7.15824 23.3664 7.20325 23.6357 7.33593C23.905 7.46862 24.1261 7.68231 24.2678 7.94702C24.4095 8.21172 24.4648 8.51416 24.4258 8.81188C24.3847 9.12606 24.241 9.41787 24.0169 9.64192C23.7929 9.86598 23.5011 10.0097 23.1869 10.0508ZM39.8906 41.6875H28.75V18.6875H38.8125C39.1937 18.6875 39.5594 18.839 39.829 19.1085C40.0985 19.3781 40.25 19.7438 40.25 20.125V41.3281C40.25 41.4234 40.2121 41.5148 40.1447 41.5822C40.0773 41.6496 39.9859 41.6875 39.8906 41.6875Z" fill="white"/>
<path d="M35.9375 35.9375C35.6532 35.9375 35.3753 36.0218 35.1389 36.1798C34.9025 36.3377 34.7182 36.5622 34.6094 36.8249C34.5006 37.0876 34.4722 37.3766 34.5276 37.6554C34.5831 37.9343 34.72 38.1904 34.921 38.3915C35.1221 38.5925 35.3782 38.7294 35.6571 38.7849C35.9359 38.8403 36.2249 38.8119 36.4876 38.7031C36.7503 38.5943 36.9748 38.41 37.1327 38.1736C37.2907 37.9372 37.375 37.6593 37.375 37.375C37.375 36.9938 37.2236 36.6281 36.954 36.3585C36.6844 36.0889 36.3187 35.9375 35.9375 35.9375ZM35.9375 28.75C35.6532 28.75 35.3753 28.8343 35.1389 28.9923C34.9025 29.1502 34.7182 29.3747 34.6094 29.6374C34.5006 29.9001 34.4722 30.1891 34.5276 30.4679C34.5831 30.7468 34.72 31.0029 34.921 31.204C35.1221 31.405 35.3782 31.5419 35.6571 31.5974C35.9359 31.6528 36.2249 31.6244 36.4876 31.5156C36.7503 31.4068 36.9748 31.2225 37.1327 30.9861C37.2907 30.7497 37.375 30.4718 37.375 30.1875C37.375 29.8063 37.2236 29.4406 36.954 29.171C36.6844 28.9014 36.3187 28.75 35.9375 28.75ZM35.9375 21.5625C35.6532 21.5625 35.3753 21.6468 35.1389 21.8048C34.9025 21.9627 34.7182 22.1872 34.6094 22.4499C34.5006 22.7126 34.4722 23.0016 34.5276 23.2804C34.5831 23.5593 34.72 23.8154 34.921 24.0165C35.1221 24.2175 35.3782 24.3544 35.6571 24.4099C35.9359 24.4653 36.2249 24.4369 36.4876 24.3281C36.7503 24.2193 36.9748 24.035 37.1327 23.7986C37.2907 23.5622 37.375 23.2843 37.375 23C37.375 22.6188 37.2236 22.2531 36.954 21.9835C36.6844 21.714 36.3187 21.5625 35.9375 21.5625ZM30.1875 35.9375C29.9032 35.9375 29.6253 36.0218 29.3889 36.1798C29.1525 36.3377 28.9682 36.5622 28.8594 36.8249C28.7506 37.0876 28.7222 37.3766 28.7776 37.6554C28.8331 37.9343 28.97 38.1904 29.171 38.3915C29.3721 38.5925 29.6282 38.7294 29.9071 38.7849C30.1859 38.8403 30.4749 38.8119 30.7376 38.7031C31.0003 38.5943 31.2248 38.41 31.3827 38.1736C31.5407 37.9372 31.625 37.6593 31.625 37.375C31.625 36.9938 31.4736 36.6281 31.204 36.3585C30.9344 36.0889 30.5687 35.9375 30.1875 35.9375ZM30.1875 28.75C29.9032 28.75 29.6253 28.8343 29.3889 28.9923C29.1525 29.1502 28.9682 29.3747 28.8594 29.6374C28.7506 29.9001 28.7222 30.1891 28.7776 30.4679C28.8331 30.7468 28.97 31.0029 29.171 31.204C29.3721 31.405 29.6282 31.5419 29.9071 31.5974C30.1859 31.6528 30.4749 31.6244 30.7376 31.5156C31.0003 31.4068 31.2248 31.2225 31.3827 30.9861C31.5407 30.7497 31.625 30.4718 31.625 30.1875C31.625 29.8063 31.4736 29.4406 31.204 29.171C30.9344 28.9014 30.5687 28.75 30.1875 28.75ZM30.1875 21.5625C29.9032 21.5625 29.6253 21.6468 29.3889 21.8048C29.1525 21.9627 28.9682 22.1872 28.8594 22.4499C28.7506 22.7126 28.7222 23.0016 28.7776 23.2804C28.8331 23.5593 28.97 23.8154 29.171 24.0165C29.3721 24.2175 29.6282 24.3544 29.9071 24.4099C30.1859 24.4653 30.4749 24.4369 30.7376 24.3281C31.0003 24.2193 31.2248 24.035 31.3827 23.7986C31.5407 23.5622 31.625 23.2843 31.625 23C31.625 22.6188 31.4736 22.2531 31.204 21.9835C30.9344 21.714 30.5687 21.5625 30.1875 21.5625Z" fill="white"/>
</svg>
