<svg width="46" height="46" viewBox="0 0 46 46" fill="none" xmlns="http://www.w3.org/2000/svg">
<path d="M32.2 6.3251C32.2 5.8676 32.3817 5.42884 32.7052 5.10534C33.0287 4.78184 33.4675 4.6001 33.925 4.6001H39.675C40.1325 4.6001 40.5713 4.78184 40.8948 5.10534C41.2183 5.42884 41.4 5.8676 41.4 6.3251V12.0751C41.4 12.5326 41.2183 12.9714 40.8948 13.2949C40.5713 13.6184 40.1325 13.8001 39.675 13.8001C39.2175 13.8001 38.7787 13.6184 38.4552 13.2949C38.1317 12.9714 37.95 12.5326 37.95 12.0751V10.4881L27.669 20.7691C27.3456 21.0921 26.9071 21.2736 26.45 21.2736C25.9929 21.2736 25.5544 21.0921 25.231 20.7691L19.55 15.0881L9.84399 24.7941C9.68607 24.9636 9.49563 25.0995 9.28403 25.1938C9.07243 25.2881 8.84401 25.3388 8.6124 25.3429C8.38078 25.3469 8.15071 25.3043 7.93592 25.2176C7.72113 25.1308 7.52601 25.0017 7.3622 24.8379C7.1984 24.6741 7.06927 24.479 6.98251 24.2642C6.89575 24.0494 6.85315 23.8193 6.85723 23.5877C6.86132 23.3561 6.91202 23.1277 7.0063 22.9161C7.10058 22.7045 7.23651 22.514 7.40599 22.3561L18.331 11.4311C18.6544 11.1081 19.0929 10.9266 19.55 10.9266C20.0071 10.9266 20.4456 11.1081 20.769 11.4311L26.45 17.1121L35.512 8.0501H33.925C33.4675 8.0501 33.0287 7.86836 32.7052 7.54486C32.3817 7.22136 32.2 6.7826 32.2 6.3251ZM8.62499 32.2001C9.08249 32.2001 9.52125 32.3818 9.84475 32.7053C10.1683 33.0288 10.35 33.4676 10.35 33.9251V39.6751C10.35 40.1326 10.1683 40.5714 9.84475 40.8949C9.52125 41.2184 9.08249 41.4001 8.62499 41.4001C8.16749 41.4001 7.72873 41.2184 7.40523 40.8949C7.08173 40.5714 6.89999 40.1326 6.89999 39.6751V33.9251C6.89999 33.4676 7.08173 33.0288 7.40523 32.7053C7.72873 32.3818 8.16749 32.2001 8.62499 32.2001ZM19.55 27.0251C19.55 26.5676 19.3683 26.1288 19.0448 25.8053C18.7213 25.4818 18.2825 25.3001 17.825 25.3001C17.3675 25.3001 16.9287 25.4818 16.6052 25.8053C16.2817 26.1288 16.1 26.5676 16.1 27.0251V39.6751C16.1 40.1326 16.2817 40.5714 16.6052 40.8949C16.9287 41.2184 17.3675 41.4001 17.825 41.4001C18.2825 41.4001 18.7213 41.2184 19.0448 40.8949C19.3683 40.5714 19.55 40.1326 19.55 39.6751V27.0251ZM27.025 29.9001C27.4825 29.9001 27.9213 30.0818 28.2448 30.4053C28.5683 30.7288 28.75 31.1676 28.75 31.6251V39.6751C28.75 40.1326 28.5683 40.5714 28.2448 40.8949C27.9213 41.2184 27.4825 41.4001 27.025 41.4001C26.5675 41.4001 26.1287 41.2184 25.8052 40.8949C25.4817 40.5714 25.3 40.1326 25.3 39.6751V31.6251C25.3 31.1676 25.4817 30.7288 25.8052 30.4053C26.1287 30.0818 26.5675 29.9001 27.025 29.9001ZM37.95 22.4251C37.95 21.9676 37.7683 21.5288 37.4448 21.2053C37.1213 20.8818 36.6825 20.7001 36.225 20.7001C35.7675 20.7001 35.3287 20.8818 35.0052 21.2053C34.6817 21.5288 34.5 21.9676 34.5 22.4251V39.6751C34.5 40.1326 34.6817 40.5714 35.0052 40.8949C35.3287 41.2184 35.7675 41.4001 36.225 41.4001C36.6825 41.4001 37.1213 41.2184 37.4448 40.8949C37.7683 40.5714 37.95 40.1326 37.95 39.6751V22.4251Z" fill="white"/>
</svg>
