<svg width="46" height="46" viewBox="0 0 46 46" fill="none" xmlns="http://www.w3.org/2000/svg">
<path d="M5.75 40.2498C4.69583 40.2498 3.79372 39.8748 3.04366 39.1248C2.29361 38.3747 1.91794 37.472 1.91666 36.4165V13.4165C1.91666 12.3623 2.29233 11.4602 3.04366 10.7102C3.795 9.96012 4.69711 9.58445 5.75 9.58318H11.7875L14.1833 6.99568C14.5347 6.61234 14.9583 6.30887 15.4541 6.08526C15.9499 5.86165 16.4686 5.74984 17.0104 5.74984H24.9167C25.4597 5.74984 25.9152 5.93384 26.2832 6.30184C26.6512 6.66984 26.8346 7.12473 26.8333 7.66651C26.8321 8.20829 26.6481 8.66382 26.2813 9.03309C25.9146 9.40237 25.4597 9.58573 24.9167 9.58318H17.0104L13.5125 13.4165H5.75V36.4165H36.4167V21.0832C36.4167 20.5401 36.6007 20.0852 36.9687 19.7185C37.3367 19.3518 37.7916 19.1678 38.3333 19.1665C38.8751 19.1652 39.3306 19.3492 39.6999 19.7185C40.0692 20.0878 40.2526 20.5427 40.25 21.0832V36.4165C40.25 37.4707 39.875 38.3734 39.1249 39.1248C38.3749 39.8761 37.4721 40.2511 36.4167 40.2498H5.75ZM36.4167 9.58318H34.5C33.9569 9.58318 33.5021 9.39918 33.1353 9.03118C32.7686 8.66318 32.5846 8.20829 32.5833 7.66651C32.5821 7.12473 32.7661 6.66984 33.1353 6.30184C33.5046 5.93384 33.9595 5.74984 34.5 5.74984H36.4167V3.83318C36.4167 3.29012 36.6007 2.83523 36.9687 2.46851C37.3367 2.10179 37.7916 1.91779 38.3333 1.91651C38.8751 1.91523 39.3306 2.09923 39.6999 2.46851C40.0692 2.83779 40.2526 3.29268 40.25 3.83318V5.74984H42.1667C42.7097 5.74984 43.1652 5.93384 43.5332 6.30184C43.9012 6.66984 44.0846 7.12473 44.0833 7.66651C44.0821 8.20829 43.8981 8.66382 43.5313 9.03309C43.1646 9.40237 42.7097 9.58573 42.1667 9.58318H40.25V11.4998C40.25 12.0429 40.066 12.4984 39.698 12.8664C39.33 13.2344 38.8751 13.4178 38.3333 13.4165C37.7916 13.4152 37.3367 13.2312 36.9687 12.8645C36.6007 12.4978 36.4167 12.0429 36.4167 11.4998V9.58318ZM21.0833 33.5415C23.4792 33.5415 25.5159 32.7033 27.1937 31.0268C28.8714 29.3504 29.7096 27.3136 29.7083 24.9165C29.7071 22.5194 28.8688 20.4833 27.1937 18.8081C25.5185 17.1329 23.4817 16.2941 21.0833 16.2915C18.6849 16.289 16.6488 17.1278 14.9749 18.8081C13.301 20.4884 12.4622 22.5245 12.4583 24.9165C12.4545 27.3085 13.2934 29.3453 14.9749 31.0268C16.6565 32.7084 18.6926 33.5466 21.0833 33.5415ZM21.0833 29.7082C19.7417 29.7082 18.6076 29.245 17.6812 28.3186C16.7549 27.3922 16.2917 26.2582 16.2917 24.9165C16.2917 23.5748 16.7549 22.4408 17.6812 21.5144C18.6076 20.588 19.7417 20.1248 21.0833 20.1248C22.425 20.1248 23.559 20.588 24.4854 21.5144C25.4118 22.4408 25.875 23.5748 25.875 24.9165C25.875 26.2582 25.4118 27.3922 24.4854 28.3186C23.559 29.245 22.425 29.7082 21.0833 29.7082Z" fill="white"/>
</svg>
